<?xml version="1.0" encoding="UTF-8" standalone="no"?>
<svg width="100px" height="100px" viewBox="0 0 100 100" version="1.1" xmlns="http://www.w3.org/2000/svg" xmlns:xlink="http://www.w3.org/1999/xlink">
    <!-- Generator: Sketch 44.1 (41455) - http://www.bohemiancoding.com/sketch -->
    <title>ARM@2x</title>
    <desc>Created with Sketch.</desc>
    <defs></defs>
    <g id="Page-1" stroke="none" stroke-width="1" fill="none" fill-rule="evenodd">
        <g id="product-icons" transform="translate(-253.000000, -140.000000)">
            <g id="Page-1" transform="translate(110.000000, 139.000000)">
                <g id="Group-15" transform="translate(143.000000, 0.359000)">
                    <g id="ARM">
                        <path d="M99.289901,50.139703 C99.289901,77.480297 77.1255446,99.6446535 49.7849505,99.6446535 C22.4443564,99.6446535 0.28,77.480297 0.28,50.139703 C0.28,22.7991089 22.4443564,0.634752475 49.7849505,0.634752475 C77.1255446,0.634752475 99.289901,22.7991089 99.289901,50.139703" id="Fill-11" fill="#4FDEE6"></path>
                        <path d="M43.7606931,73.8909901 L46.7448515,55.9543564 C46.7448515,55.9543564 40.3765347,55.9563366 37.7547525,55.9543564 C35.8933663,55.9523762 35.3349505,55.0761386 36.2923762,53.499901 C40.0606931,47.3018812 43.8507921,41.1167327 47.6329703,34.9276238 C49.1676238,32.4167327 50.7290099,29.9216832 52.220099,27.3860396 C52.6131683,26.7177228 52.9250495,26.3771287 53.7983168,26.3771287 L55.5656436,26.3771287 C55.2567327,28.2583168 55.0111881,30.1553465 54.7072277,31.9137624 C54.0359406,35.7929703 53.359703,39.670198 52.6636634,43.5454455 C52.5359406,44.2563366 52.8745545,44.4038614 53.480495,44.4018812 C56.1012871,44.3909901 58.7230693,44.3929703 61.3438614,44.3909901 C61.6092079,44.3909901 61.8755446,44.3761386 62.1389109,44.399901 C63.4389109,44.5147525 63.9250495,45.429604 63.2527723,46.5355446 C61.2408911,49.8464356 59.2181188,53.150396 57.1933663,56.4543564 C53.8755446,61.8692079 50.5349505,67.2711881 47.2527723,72.7078218 C46.7705941,73.5058416 46.4408911,73.8513861 45.300297,73.9018812 L43.7606931,73.8909901 Z" id="Fill-13" fill="#FFFFFF"></path>
                    </g>
                </g>
            </g>
        </g>
    </g>
</svg>