<?xml version="1.0" encoding="UTF-8" standalone="no"?>
<svg width="100px" height="100px" viewBox="0 0 100 100" version="1.1" xmlns="http://www.w3.org/2000/svg" xmlns:xlink="http://www.w3.org/1999/xlink">
    <!-- Generator: Sketch 44.1 (41455) - http://www.bohemiancoding.com/sketch -->
    <title>AN@2x</title>
    <desc>Created with Sketch.</desc>
    <defs></defs>
    <g id="Page-1" stroke="none" stroke-width="1" fill="none" fill-rule="evenodd">
        <g id="product-icons" transform="translate(-1268.000000, -140.000000)">
            <g id="Page-1" transform="translate(110.000000, 139.000000)">
                <g id="Group-55" transform="translate(432.000000, 0.359000)">
                    <g id="AN" transform="translate(726.000000, 0.000000)">
                        <path d="M99.2816832,50.139703 C99.2816832,77.480297 77.1173267,99.6446535 49.7767327,99.6446535 C22.4371287,99.6446535 0.271782178,77.480297 0.271782178,50.139703 C0.271782178,22.7991089 22.4371287,0.634752475 49.7767327,0.634752475 C77.1173267,0.634752475 99.2816832,22.7991089 99.2816832,50.139703" id="Fill-33" fill="#FE4C5C"></path>
                        <path d="M71.5521782,64.8006931 C71.5521782,66.1680198 71.5729703,67.5353465 71.5462376,68.9026733 C71.5254455,69.9571287 71.1452475,70.8878218 70.2056436,71.4294059 C69.6868317,71.7284158 69.0848515,71.9185149 68.4472277,71.9165347 C65.7521782,71.9086139 63.0561386,71.9274257 60.360099,71.9056436 C59.4591089,71.8977228 58.6749505,71.5551485 58.0214851,70.9006931 C50.1115842,62.979901 42.1947525,55.0640594 34.2789109,47.1472277 C32.519505,45.3868317 30.7620792,43.6244554 28.999703,41.8660396 C28.3393069,41.2066337 28.020495,40.3967327 28.0145545,39.4848515 C27.9967327,36.8145545 27.9917822,34.1452475 28.0175248,31.4749505 C28.0284158,30.4492079 28.3422772,29.4888119 29.27,28.9363366 C29.7670297,28.640297 30.3878218,28.4115842 30.9581188,28.399703 C33.7690099,28.3462376 36.5818812,28.3482178 39.3927723,28.389802 C40.330396,28.4036634 41.0967327,28.9026733 41.7610891,29.5749505 C44.1937624,32.0373267 46.6412871,34.4848515 49.0878218,36.9323762 C50.6888119,38.5343564 52.3036634,40.1234653 53.9056436,41.7254455 C55.5333663,43.3541584 57.1511881,44.9957426 58.7808911,46.6244554 C60.630396,48.4729703 62.4907921,50.3115842 64.3422772,52.1581188 C66.4056436,54.2155446 68.4591089,56.2818812 70.5254455,58.3363366 C71.2284158,59.0353465 71.5571287,59.8709901 71.5521782,60.8541584 C71.5462376,62.17 71.5511881,63.4848515 71.5511881,64.8006931 L71.5521782,64.8006931 Z" id="Fill-45" fill="#FFFFFF"></path>
                        <path d="M28.000396,63.7226733 C28.0013861,62.0335644 27.9815842,60.3434653 28.0083168,58.6543564 C28.0241584,57.5662376 28.430099,56.5949505 29.4093069,56.0810891 C30.0429703,55.7484158 30.7489109,55.5088119 31.5776238,55.8315842 C32.249901,56.0929703 32.7518812,56.4850495 33.2310891,56.9632673 C36.5994059,60.3256436 39.9617822,63.6929703 43.3310891,67.0523762 C43.9251485,67.6454455 44.2776238,68.3632673 44.2320792,69.1830693 C44.1776238,70.1474257 43.730099,70.9929703 42.8776238,71.4761386 C42.3716832,71.7622772 41.7726733,71.9246535 41.1439604,71.9216832 C37.8182178,71.9068317 34.490495,71.9286139 31.1637624,71.9068317 C30.1093069,71.899901 29.1558416,71.5682178 28.5340594,70.6444554 C28.179604,70.1167327 27.9974257,69.5167327 27.9994059,68.8682178 C28.0033663,67.1523762 28.000396,65.4375248 28.000396,63.7226733" id="Fill-47" fill="#FFFFFF"></path>
                        <path d="M71.5454455,36.5659406 C71.5454455,38.2560396 71.5662376,39.9461386 71.5385149,41.6352475 C71.5216832,42.6916832 71.1345545,43.6461386 70.2008911,44.1748515 C69.4751485,44.5847525 68.6929703,44.8441584 67.7642574,44.4134653 C67.0424752,44.079802 66.5692079,43.5550495 66.0563366,43.0322772 C64.8672277,41.8194059 63.7206931,40.5629703 62.5137624,39.3659406 C60.6474257,37.5144554 58.7434653,35.7015842 56.8612871,33.8659406 C56.4751485,33.489703 56.0424752,33.1322772 55.7642574,32.6837624 C55.2949505,31.930297 55.0642574,31.1312871 55.509802,30.2213861 C55.7414851,29.7461386 55.9791089,29.3243564 56.3939604,29.0035644 C56.9147525,28.6005941 57.5266337,28.3906931 58.1632673,28.3867327 C61.6464356,28.3639604 65.1305941,28.3461386 68.6127723,28.3946535 C69.6117822,28.4085149 70.5573267,28.8035644 71.0632673,29.7411881 C71.3325743,30.2411881 71.5038614,30.8520792 71.5236634,31.4194059 C71.5810891,33.1332673 71.5434653,34.850099 71.5434653,36.5659406 L71.5454455,36.5659406 Z" id="Fill-49" fill="#FFFFFF"></path>
                    </g>
                </g>
            </g>
        </g>
    </g>
</svg>