<?xml version="1.0" encoding="utf-8"?>
<!-- Generator: Adobe Illustrator 21.0.2, SVG Export Plug-In . SVG Version: 6.00 Build 0)  -->
<svg version="1.1" id="Layer_1" xmlns="http://www.w3.org/2000/svg" xmlns:xlink="http://www.w3.org/1999/xlink" x="0px" y="0px"
	 viewBox="0 0 248 480" style="enable-background:new 0 0 248 480;" xml:space="preserve">
<style type="text/css">
	.st0{fill:#353540;}
	.st1{fill:#FFFFFF;}
	.st2{fill:#E7E7E7;}
	.st3{fill:#4FDEE6;}
</style>
<title>Artboard@2x</title>
<desc>Created with Sketch.</desc>
<g id="Page-1">
	<g id="Artboard">
		<g id="phone-L" transform="translate(61.000000, 0.000000)">
			<path id="Combined-Shape" class="st0" d="M-29.8,0h185.6C173.3,0,187,13.8,187,31.2v417.7c0,17.4-13.7,31.2-31.2,31.2H-29.8
				C-47.3,480-61,466.2-61,448.8V31.2C-61,13.8-47.3,0-29.8,0z M-46.8,433.3h219.7V42.5H-46.8V433.3z"/>
		</g>
		<g id="banner" transform="translate(75.000000, 42.000000)">
			<polygon id="Fill-1" class="st1" points="-61,392 159,392 159,0 -61,0 			"/>
			<polygon id="Fill-2" class="st2" points="-61,36 159,36 159,0 -61,0 			"/>
			<polygon id="Fill-3" class="st2" points="-53,205 150,205 150,107 -53,107 			"/>
			<polygon id="Fill-4" class="st2" points="14,224 140,224 140,218 14,218 			"/>
			<polygon id="Fill-5" class="st2" points="14,238 111,238 111,232 14,232 			"/>
			<polygon id="Fill-6" class="st2" points="14,252 119,252 119,246 14,246 			"/>
			<polygon id="Fill-7" class="st2" points="14,265 126,265 126,259 14,259 			"/>
			<polygon id="Fill-8" class="st2" points="-53,265 2,265 2,218 -53,218 			"/>
			<polygon id="Fill-9" class="st2" points="14,285 89,285 89,279 14,279 			"/>
			<polygon id="Fill-10" class="st2" points="14,300 119,300 119,294 14,294 			"/>
			<polygon id="Fill-11" class="st2" points="14,314 132,314 132,308 14,308 			"/>
			<polygon id="Fill-12" class="st2" points="14,327 117,327 117,321 14,321 			"/>
			<polygon id="Fill-13" class="st2" points="-53,326 5,326 5,279 -53,279 			"/>
			<polygon id="Fill-9_1_" class="st2" points="14,347 89,347 89,341 14,341 			"/>
			<polygon id="Fill-10_1_" class="st2" points="14,361 119,361 119,355 14,355 			"/>
			<polygon id="Fill-11_1_" class="st2" points="14,375 132,375 132,369 14,369 			"/>
			<polygon id="Fill-13_1_" class="st2" points="-53,383 5,383 5,341 -53,341 			"/>
			<polygon id="Fill-16" class="st3" points="-61,91 159,91 159,52 -61,52 			"/>
		</g>
	</g>
</g>
</svg>
