<?xml version="1.0" encoding="utf-8"?>
<!-- Generator: Adobe Illustrator 16.0.0, SVG Export Plug-In . SVG Version: 6.00 Build 0)  -->
<!DOCTYPE svg PUBLIC "-//W3C//DTD SVG 1.1//EN" "http://www.w3.org/Graphics/SVG/1.1/DTD/svg11.dtd">
<svg version="1.1" id="Layer_1" xmlns="http://www.w3.org/2000/svg" xmlns:xlink="http://www.w3.org/1999/xlink" x="0px" y="0px"
	 width="198.086px" height="198.089px" viewBox="0 0 198.086 198.089" enable-background="new 0 0 198.086 198.089"
	 xml:space="preserve">
<g>
	<path d="M197.982,172.957c0,13.896-11.371,25.268-25.268,25.268H25.267C11.37,198.223,0,186.853,0,172.957V25.504
		C0,11.608,11.37,0.238,25.267,0.238h147.449c13.896,0,25.267,11.37,25.267,25.267V172.957L197.982,172.957z"/>
</g>
<g>
	<g id="XMLID_14_">
		<g>
			<path fill="#DD669F" d="M161.188,35.415c1.746-1.366,3.426-2.818,5.172-4.177c1.955-1.532,4.092-1.899,6.386-0.749
				c-4.265-0.173-7.522,1.834-10.386,4.755c-0.555,0.573-1.254,1.262-2.082,0.984l0.057-0.174
				C160.686,36.257,160.962,35.59,161.188,35.415z"/>
			<path fill="#DD669F" d="M156.004,38.095c-0.13-0.049-0.254-0.118-0.35-0.222c-0.396-1.488-0.045-2.687,1.369-3.439
				c1.427-0.76,2.346-0.239,2.979,1.16c0.118,0.262,0.228,0.399,0.33,0.46l-0.058,0.174c-0.141-0.041-0.283-0.117-0.434-0.227
				c-2.52-1.843-3.156-0.125-3.712,1.85C156.096,37.937,156.053,38.018,156.004,38.095z"/>
			<path fill="#DD669F" d="M155.491,38.695c0.216-0.162,0.386-0.368,0.514-0.6c0.461,0.186,1.048,0.156,1.197,0.771
				c0.032,0.149-0.224,0.505-0.405,0.552C156.107,39.607,155.782,39.169,155.491,38.695z"/>
			<path fill="#DD669F" d="M155.654,37.873c-0.032,0.229,0.221,0.61-0.305,0.589C155.449,38.267,155.555,38.069,155.654,37.873z"/>
			<path fill="#DD669F" d="M155.654,37.873c0.096,0.104,0.22,0.173,0.35,0.222c-0.128,0.232-0.298,0.438-0.514,0.6
				c-0.049-0.08-0.094-0.153-0.143-0.232C155.875,38.483,155.623,38.102,155.654,37.873z"/>
			<path fill="#DD669F" d="M130.282,63.588c7.014-6.145,13.521-12.836,20.585-18.914c0.972-0.833,2.193-1.483,1.041-3.408
				c-0.908-1.524,0.93-2.91,3.441-2.803c0.047,0.08,0.094,0.153,0.142,0.232c-0.05,0.047-0.101,0.088-0.158,0.125
				c-1.653,0.463-2.903,1.203-2.39,3.271c0.305,1.239-0.439,2.07-1.268,2.769c-5.81,4.924-11.33,10.131-16.263,15.952
				c-1.308,1.537-3.521,1.556-5.027,2.892L130.282,63.588z"/>
			<path fill="#DD669F" d="M118.389,73.851c-0.273,0.115-0.642,0.214-0.746,0.441c-0.86,1.9-2.24,3.297-3.746,4.561l-0.164-0.203
				c0.248-0.181,0.463-0.396,0.562-0.628c2.377-5.456,7.839-7.635,12.033-11.067c1.345-1.096,2.659-2.221,3.957-3.367l0.104,0.115
				c-2.557,2.252-4.933,4.693-7.529,6.9C121.439,71.806,120.132,73.122,118.389,73.851z"/>
			<path fill="#DD669F" d="M108.02,106.096c0.864-2.775,1.987-4.919,4.842-6.585c2.803-1.63,4.93-4.548,6.354-7.791
				c0.731-1.673,1.909-3.655,4.433-1.771c0.677,0.509,1.519,0.01,2.156-0.467c1.264-0.946,2.471-2.042,2.916-3.573
				c2.17-7.382,7.769-12.21,12.813-17.48c2.966-3.105,6.549-5.562,9.456-8.666c3.981-4.248,7.766-8.692,11.729-12.966
				c3.567-3.85,7.516-7.389,10.146-12.032c0.146-0.26,0.46-0.33,0.771-0.28c-1.063,2.413-2.62,4.467-4.372,6.427
				c-5.296,5.918-10.955,11.498-16.072,17.599c-4.281,5.112-10.06,8.776-14.49,13.837c-3.645,4.155-7.862,7.826-9.189,13.587
				c-0.469,2.041-2.09,3.486-3.865,4.587c-0.826,0.514-1.85,0.957-2.771,0.532c-1.812-0.844-2.679-0.807-3.251,1.227
				c-1.152,4.116-4.486,6.757-7.355,8.996c-1.804,1.408-3.275,1.447-2.371,4.111c0.273,0.802-1.133,1.133-1.95,1.423l-0.194-0.065
				C107.831,106.541,107.95,106.321,108.02,106.096z"/>
			<path fill="#DD669F" d="M98.323,93.621c0.081,1.037-0.729,1.277-1.251,1.705C96.695,94.306,96.728,94.293,98.323,93.621z"/>
			<path fill="#DD669F" d="M97.072,95.326c0.005,0.022,0.01,0.045,0.021,0.067c-0.037-0.003-0.067-0.003-0.103-0.001
				C97.015,95.368,97.04,95.345,97.072,95.326z"/>
			<path fill="#DD669F" d="M97.093,95.393c0,0-0.088,0.008-0.105,0.012l-0.001-0.006l0.004-0.007
				C97.026,95.39,97.056,95.389,97.093,95.393z"/>
			<path fill="#DD669F" d="M65.608,129.289c0.038-2.041,1.662-3.469,4.02-3.406c1.996,0.055,2.355-0.973,1.757-2.637
				c-0.271-0.731-0.707-1.402-0.86-2.17c-0.128-0.632,0.026-1.42,0.718-1.299c0.893,0.161,1.528,0.08,1.955-0.268
				c0.026,0.013,0.047,0.025,0.074,0.039c-0.006-0.028-0.013-0.057-0.025-0.084c0.369-0.334,0.574-0.896,0.646-1.702
				c0.075-0.796,0.906-0.968,1.617-0.923c1.354,0.076,2.108-0.84,2.956-1.641c1.135-1.068,2.064-2.311,3.238-3.363
				c3.776-3.369,7.256-7.049,10.836-10.627c0.643-0.641,1.711-1.578,1.373-2.396c0.108-0.108,0.22-0.223,0.334-0.332
				c-0.188,0.018-0.36,0.026-0.533,0.029c-2.125-2.309-0.579-3.384,1.093-4.601c0.897-0.655,1.4-1.546,1.785-2.597
				c0.581-1.591,1.54-2.752,3.537-1.967c0.895,0.354,1.742,0.098,2.475-0.466c2.541-1.943,4.683-4.332,7.004-6.508
				c1.34-1.251,2.875-2.324,4.289-3.513c1.506-1.264,2.886-2.661,3.746-4.561c0.104-0.227,0.473-0.327,0.746-0.441
				c1.744-0.729,3.053-2.045,4.469-3.248c2.597-2.208,4.973-4.648,7.529-6.9c1.506-1.336,3.721-1.355,5.026-2.892
				c4.935-5.82,10.453-11.027,16.263-15.952c0.828-0.699,1.572-1.53,1.268-2.769c-0.514-2.067,0.736-2.807,2.39-3.271
				c0.058-0.037,0.108-0.078,0.158-0.125c0.291,0.475,0.616,0.912,1.305,0.723c0.183-0.046,0.438-0.403,0.405-0.552
				c-0.149-0.614-0.736-0.585-1.197-0.771c0.049-0.077,0.092-0.158,0.126-0.244c0.556-1.976,1.192-3.693,3.712-1.85
				c0.15,0.11,0.293,0.187,0.434,0.227c0.83,0.277,1.527-0.411,2.084-0.984c2.863-2.92,6.121-4.928,10.385-4.755
				c0.296,1.331,0.593,2.667,0.889,3.998c-0.311-0.05-0.625,0.02-0.771,0.28c-2.629,4.643-6.578,8.182-10.146,12.032
				c-3.965,4.274-7.748,8.718-11.729,12.966c-2.906,3.104-6.49,5.561-9.456,8.666c-5.044,5.27-10.642,10.098-12.813,17.48
				c-0.443,1.531-1.65,2.627-2.916,3.573c-0.637,0.478-1.479,0.977-2.156,0.467c-2.522-1.884-3.701,0.098-4.432,1.771
				c-1.425,3.242-3.551,6.16-6.354,7.791c-2.854,1.666-3.979,3.81-4.842,6.585c-0.07,0.225-0.189,0.443-0.269,0.652
				c-0.119,0.303-0.162,0.594,0.084,0.918c1.37,1.793,0.526,2.556-1.293,2.973c-0.815,0.188-1.298,0.846-1.663,1.551
				c-0.896,1.764-2.434,2.752-4.178,3.477c-1.494,0.613-2.635,1.383-3.098,3.158c-0.337,1.315-1.477,2.498-2.955,2.479
				c-2.136-0.035-3.458,1.134-4.678,2.55c-2.161,2.495-5.036,4.338-6.632,7.35c-0.385,0.721-1.139,1.104-1.907,1.263
				c-5.207,1.062-7.988,4.887-10.427,9.098c-0.909,1.575-1.993,2.871-3.802,3.417c-1.164,0.35-1.975,1.2-2.809,2.033
				c-6.877,6.811-12.952,14.292-18.232,22.383c-1.762,2.7-3.675,5.499-2.595,9.221c0.573,1.957-0.93,2.586-2.668,2.26
				c-1.771-0.338-3.125-1.518-4.556-2.536c-4.965-3.541-8.956-8.037-12.611-12.858c-0.104-0.037-0.208-0.05-0.303-0.041
				c-0.187-0.84-0.372-1.674-0.559-2.513c0.094-0.009,0.195-0.038,0.293-0.083c0.734-0.445,1.395-1.275,2.34-0.988
				c3.562,1.084,6.286-0.707,8.897-2.607c5.361-3.896,10.645-7.898,15.498-12.437c1.281-1.196,2.106-2.31,2.039-4.229
				c-0.082-2.146,1.238-4.219,3.403-3.969c1.008,0.111,1.862,0.019,2.621-0.234c1.75-0.569,2.972-1.92,4.297-3.264
				C63.867,133.481,65.559,132.056,65.608,129.289z M96.99,95.392c-1.485-0.047-2.728,0.187-2.608,2.288
				c0.387-0.176,0.69-0.237,0.873-0.416c0.598-0.6,1.157-1.24,1.732-1.859c0.017-0.004,0.105-0.012,0.105-0.012
				c-0.011-0.021-0.016-0.044-0.021-0.067c0.522-0.428,1.332-0.668,1.251-1.705c-1.595,0.672-1.627,0.686-1.251,1.705
				C97.04,95.345,97.015,95.368,96.99,95.392z"/>
			<path fill="#DD669F" d="M96.986,95.398l0.001,0.006c-0.576,0.62-1.135,1.259-1.732,1.859c-0.182,0.179-0.486,0.24-0.873,0.416
				c-0.12-2.101,1.123-2.335,2.608-2.288L96.986,95.398z"/>
			<path fill="#DD669F" d="M95.68,90.522c-0.366-1.537,1.781-0.965,2.36-2.107c0.959-1.886,1.442,0.015,2.306,0.309
				c2.122,0.733,3.238-1.416,4.53-2.668c2.558-2.487,4.368-5.802,8.058-7c0.258-0.082,0.549-0.23,0.797-0.405l0.166,0.203
				c-1.414,1.189-2.949,2.262-4.291,3.513c-2.32,2.176-4.463,4.565-7.004,6.508c-0.731,0.564-1.58,0.819-2.474,0.466
				c-1.997-0.785-2.956,0.375-3.537,1.967c-0.384,1.051-0.887,1.942-1.785,2.597c-1.671,1.217-3.218,2.292-1.093,4.601
				c-1.405,0.042-2.174-0.314-2.121-1.56c0.045-1.011-0.072-1.86,1.277-2.532C94.242,93.731,96.282,93.067,95.68,90.522z"/>
			<path fill="#DD669F" d="M78.467,115.196c-0.847,0.8-1.602,1.718-2.956,1.64c-0.711-0.045-1.542,0.127-1.617,0.924
				c-0.072,0.807-0.277,1.367-0.646,1.701c-0.74-2.76-0.641-4.364,2.942-3.344c0.781,0.221,2.265-1.973,3.395-3.094
				c1.616-1.6,3.192-3.245,4.814-4.846c3.025-3,6.072-5.983,9.515-9.369c0.338,0.818-0.73,1.757-1.373,2.396
				c-3.58,3.578-7.06,7.258-10.836,10.627C80.531,112.884,79.602,114.128,78.467,115.196z"/>
			<path fill="#DD669F" d="M65.608,129.289c-0.05,2.769-1.741,4.192-3.35,5.828c-1.326,1.344-2.548,2.693-4.297,3.262l-0.067-0.194
				c0.261-0.095,0.466-0.276,0.687-0.494c1.952-1.896,3.868-3.821,5.836-5.696c0.485-0.461,0.463-0.775,0.343-1.449
				c-0.538-2.985,2.019-5.879,4.917-5.463c2.007,0.291,1.807-0.312,1.004-1.578c-0.203-0.319-0.287-0.721-0.449-1.074
				c-0.528-1.137-1.436-2.385-0.32-3.489c1.002-0.989,2.101-0.013,3.286,0.569c-0.427,0.348-1.062,0.429-1.955,0.268
				c-0.692-0.122-0.847,0.667-0.718,1.299c0.153,0.768,0.589,1.438,0.86,2.17c0.598,1.664,0.239,2.691-1.757,2.637
				C67.271,125.819,65.646,127.248,65.608,129.289z"/>
			<path fill="#DD669F" d="M101.086,116.24c-1.337,0.428-2.427,0.678-2.632,2.742c-0.09,0.919-1.555,4.008-4.354,3.012
				c-0.885-0.313-1.47-0.009-2.059,0.607c-2.293,2.386-5.127,4.438-6.766,7.205c-1.704,2.878-4.136,3.263-6.771,4.322
				c-3.021,1.211-4.913,4.27-6.485,7.117c-1.179,2.139-2.218,4.125-4.891,4.475c-0.764,0.098-1.175,0.645-1.639,1.119
				c-7.458,7.599-14.324,15.67-19.828,24.83c-1.33,2.215-2.508,4.328-1.263,7.072c0.77,1.711-0.167,2.729-2.002,3.018
				c-1.354,0.217-2.526-0.199-3.576-0.907c-6.075-4.11-11.828-8.556-15.353-15.24c-0.013-0.057-0.025-0.114-0.038-0.171
				c0.094-0.009,0.199,0.003,0.303,0.041c3.656,4.82,7.646,9.316,12.611,12.857c1.431,1.02,2.784,2.199,4.556,2.537
				c1.739,0.326,3.242-0.301,2.668-2.26c-1.08-3.723,0.833-6.521,2.595-9.221c5.28-8.091,11.354-15.572,18.232-22.383
				c0.833-0.833,1.645-1.686,2.809-2.033c1.809-0.546,2.893-1.842,3.802-3.417c2.438-4.21,5.22-8.036,10.427-9.099
				c0.768-0.158,1.521-0.541,1.907-1.262c1.596-3.011,4.471-4.854,6.632-7.35c1.22-1.416,2.542-2.585,4.678-2.551
				c1.479,0.02,2.618-1.163,2.955-2.479c0.462-1.775,1.604-2.544,3.098-3.158c1.746-0.725,3.282-1.713,4.178-3.477
				c0.365-0.705,0.849-1.363,1.663-1.551c1.82-0.417,2.663-1.18,1.293-2.973c-0.246-0.324-0.203-0.615-0.084-0.918l0.193,0.065
				c-0.067,0.608,0.469,0.729,0.785,1.042c0.522,0.52,1.377,0.916,1.07,1.878c-0.313,0.968-1.148,1.412-2.056,1.296
				c-1.418-0.176-1.95,0.29-2.317,1.708C104.886,114.835,103.007,115.632,101.086,116.24z"/>
			<path fill="#DD669F" d="M22.871,162.927c-0.018-0.079-0.036-0.159-0.053-0.239c0.53-1.819,1.786-2.267,3.376-1.53
				c1.857,0.858,3.37,0.223,4.908-0.73c7.126-4.396,13.413-9.875,19.707-15.346c0.431-0.377,0.839-0.594,0.558-1.586
				c-1.004-3.601,1.995-6.312,5.724-5.313c0.332,0.088,0.586,0.072,0.804,0.001l0.067,0.194c-0.759,0.254-1.613,0.348-2.621,0.236
				c-2.166-0.25-3.485,1.823-3.403,3.969c0.068,1.92-0.758,3.033-2.039,4.229c-4.853,4.538-10.137,8.542-15.498,12.438
				c-2.611,1.898-5.335,3.69-8.897,2.606c-0.945-0.288-1.605,0.542-2.34,0.987C23.066,162.89,22.964,162.919,22.871,162.927z"/>
			<path fill="#DD669F" d="M23.429,165.441c0.013,0.057,0.025,0.114,0.038,0.171c-0.03-0.054-0.061-0.112-0.085-0.167
				C23.399,165.441,23.412,165.445,23.429,165.441z"/>
			<path fill="#DD669F" d="M22.871,162.927c0.187,0.84,0.372,1.674,0.559,2.514c-0.017,0.004-0.03,0-0.047,0.004
				c-0.398-0.792-0.59-1.631-0.57-2.511C22.829,162.931,22.848,162.933,22.871,162.927z"/>
			<path fill="#DD669F" d="M22.817,162.688c0.018,0.08,0.036,0.16,0.053,0.239c-0.023,0.006-0.042,0.004-0.059,0.008
				C22.812,162.851,22.812,162.773,22.817,162.688z"/>
			<path fill="#DD669F" d="M22.986,165.683c0.12-0.135,0.251-0.219,0.396-0.238c0.024,0.055,0.055,0.113,0.085,0.167l-0.233,0.082
				L22.986,165.683z"/>
			<path fill="#DD669F" d="M22.351,162.828c0.138-0.109,0.29-0.154,0.467-0.14c-0.005,0.085-0.006,0.163-0.005,0.247
				C22.657,162.939,22.5,162.902,22.351,162.828z"/>
			<path fill="#DD669F" d="M22.986,165.683c-0.212-0.954-0.423-1.902-0.635-2.855c0.149,0.075,0.307,0.111,0.461,0.107
				c-0.02,0.88,0.172,1.718,0.57,2.511C23.237,165.464,23.105,165.548,22.986,165.683z"/>
		</g>
	</g>
</g>
<g>
	<g>
		<path fill="#E2622D" d="M24.502,0.238C11.576,0.238,1,10.813,1,23.74v150.981c0,12.926,10.576,23.502,23.502,23.502H175.48
			c12.926,0,23.502-10.576,23.502-23.502V23.74c0-12.926-10.576-23.502-23.502-23.502H24.502z M192.121,167.621
			c0,12.926-10.576,23.502-23.502,23.502H31.468c-12.926,0-23.502-10.576-23.502-23.502V30.467
			c0-12.926,10.576-23.502,23.502-23.502h137.151c12.926,0,23.502,10.576,23.502,23.502V167.621z"/>
	</g>
</g>
</svg>
