<?xml version="1.0" encoding="UTF-8" standalone="no"?>
<svg width="100px" height="100px" viewBox="0 0 100 100" version="1.1" xmlns="http://www.w3.org/2000/svg" xmlns:xlink="http://www.w3.org/1999/xlink">
    <!-- Generator: Sketch 44.1 (41455) - http://www.bohemiancoding.com/sketch -->
    <title>FB@2x</title>
    <desc>Created with Sketch.</desc>
    <defs></defs>
    <g id="Page-1" stroke="none" stroke-width="1" fill="none" fill-rule="evenodd">
        <g id="product-icons" transform="translate(-979.000000, -140.000000)">
            <g id="Page-1" transform="translate(110.000000, 139.000000)">
                <g id="FB" transform="translate(869.000000, 1.000000)">
                    <path d="M99.4577228,50.0001 C99.4577228,77.6141 77.2933663,100.0001 49.9527723,100.0001 C22.6121782,100.0001 0.447821782,77.6141 0.447821782,50.0001 C0.447821782,22.3861 22.6121782,0.0001 49.9527723,0.0001 C77.2933663,0.0001 99.4577228,22.3861 99.4577228,50.0001" id="Fill-29" fill="#3D5A98"></path>
                    <path d="M69.330297,28.0001 L30.5748515,28.0001 C29.2471287,28.0001 28.1708911,29.0871 28.1708911,30.4291 L28.1708911,69.5721 C28.1708911,70.9131 29.2471287,72.0001 30.5748515,72.0001 L51.440198,72.0001 L51.440198,54.9611 L45.7619802,54.9611 L45.7619802,48.3211 L51.440198,48.3211 L51.440198,43.4231 C51.440198,37.7401 54.8758416,34.6461 59.8966337,34.6461 C62.299604,34.6461 64.3669307,34.8271 64.9689109,34.9071 L64.9689109,40.8471 L61.4877228,40.8481 C58.7580198,40.8481 58.2293069,42.1581 58.2293069,44.0811 L58.2293069,48.3211 L64.7392079,48.3211 L63.8926733,54.9611 L58.2293069,54.9611 L58.2293069,72.0001 L69.330297,72.0001 C70.6590099,72.0001 71.7352475,70.9131 71.7352475,69.5721 L71.7352475,30.4291 C71.7352475,29.0871 70.6590099,28.0001 69.330297,28.0001" id="Fill-37" fill="#FFFFFF"></path>
                </g>
            </g>
        </g>
    </g>
</svg>