<?xml version="1.0" encoding="utf-8"?>
<!-- Generator: Adobe Illustrator 16.0.0, SVG Export Plug-In . SVG Version: 6.00 Build 0)  -->
<!DOCTYPE svg PUBLIC "-//W3C//DTD SVG 1.1//EN" "http://www.w3.org/Graphics/SVG/1.1/DTD/svg11.dtd">
<svg version="1.1" id="Layer_1" xmlns="http://www.w3.org/2000/svg" xmlns:xlink="http://www.w3.org/1999/xlink" x="0px" y="0px"
	 width="198.086px" height="198.089px" viewBox="0 0 198.086 198.089" enable-background="new 0 0 198.086 198.089"
	 xml:space="preserve">
<g>
	<path d="M197.982,172.957c0,13.896-11.37,25.267-25.267,25.267H25.267C11.37,198.223,0,186.853,0,172.957V25.504
		C0,11.608,11.37,0.238,25.267,0.238h147.449c13.896,0,25.267,11.37,25.267,25.267V172.957z"/>
</g>
<g>
	<g id="XMLID_12_">
		<g>
			<path fill="#EF3F3F" d="M35.514,17.607c1.235,1.32,2.472,2.632,3.71,3.938c-1.208,0.597-2.417,1.195-4.114,2.039
				c1.207,1.051,2.483,2.136,3.493,3.016c0.732-1.459,1.293-2.548,1.832-3.64c1.326,1.321,2.641,2.662,3.952,3.98
				c-1.066,0.562-2.125,1.132-3.549,1.881c0.853,0.958,1.939,2.222,2.995,3.442c0.777-1.587,1.354-2.764,1.947-3.952
				c1.261,1.256,2.518,2.497,3.79,3.74c-1.125,0.642-2.255,1.268-4.087,2.315c0.841,1.546,1.494,4.034,3.079,5.559
				c14.912,14.342,29.992,28.503,44.975,42.783c1.433,1.354,2.405,1.418,4.105,0.341c2.914-1.833,5.979-3.579,9.204-4.776
				c8.325-3.123,15.597-1.268,20.714,5.94c3.321,4.693,5.925,10.025,8.131,15.34c2.011,4.834,4.812,7.532,10.157,8.43
				c11.493,1.922,21.735,6.716,29.917,15.247c8.706,9.076,10.447,18.905,5.106,30.366c-5.915,12.714-15.445,22.074-28.174,27.895
				c-3.723,1.707-7.996,2.236-12.015,3.301c-2.442-0.428-4.887-0.841-7.327-1.283c-14.262-6.874-22.162-18.953-25.15-33.793
				c-1.657-8.235-5.275-12.655-13.082-14.733c-3.259-0.858-6.314-2.837-9.186-4.738c-10.091-6.65-12.37-15.523-6.9-26.297
				c1.288-2.518,2.832-4.908,4.516-7.789c-3.871-4.094-7.917-8.401-11.985-12.666C61.222,72.648,50.907,61.794,40.506,51
				c-1.248-1.292-2.75-2.469-4.337-3.246c-1.735-0.841-4.7-3.423-4.103,1.761c0.029,0.308-1.424,1.141-1.542,1.038
				c-1.261-1.256-2.401-2.605-3.587-3.947c0.677-0.411,1.294-0.96,2.026-1.165c0.526-0.157,1.198,0.149,1.807,0.256
				c0.163-0.281,0.334-0.569,0.513-0.855c-1.262-1.166-2.525-2.332-3.773-3.488c-0.71,1.682-1.209,2.85-1.709,4.017
				c-1.505-1.118-3.013-2.221-5.486-4.067c0.181-0.044,0.364-0.095,0.537-0.133c2.184-0.555,3.465-0.882,5.148-1.298
				c-1.24-1.464-2.325-2.735-3.802-4.49c-0.528,2.152-0.88,3.557-1.389,5.6c-1.921-1.765-3.278-2.993-4.628-4.219
				c0.093-0.49,0.186-0.973,0.257-1.467c1.481-0.217,2.961-0.419,4.977-0.708C18.407,31,18.354,27.8,20.977,24.525
				c3.121-3.921,4.906-4.402,12.395-3.053C34.139,20.11,34.818,18.861,35.514,17.607z"/>
		</g>
		<g>
		</g>
	</g>
</g>
</svg>
