<?xml version="1.0" encoding="utf-8"?>
<!-- Generator: Adobe Illustrator 21.0.2, SVG Export Plug-In . SVG Version: 6.00 Build 0)  -->
<svg version="1.1" id="Layer_1" xmlns="http://www.w3.org/2000/svg" xmlns:xlink="http://www.w3.org/1999/xlink" x="0px" y="0px"
	 viewBox="0 0 248 480" style="enable-background:new 0 0 248 480;" xml:space="preserve">
<style type="text/css">
	.st0{fill:#FFFFFF;}
	.st1{fill:#353540;}
	.st2{fill:#E7E7E7;}
	.st3{fill:#4FDEE6;}
	.st4{opacity:0.5;}
</style>
<g>
	<polygon id="path-1" class="st0" points="234,391 14,391 14,43 234,43 	"/>
</g>
<title>RM-interscroller@2x</title>
<desc>Created with Sketch.</desc>
<g id="_x30_1-format-RM">
	<g id="RM-interscroller">
		<g id="RM-interscroller_x40_2x" transform="translate(61.000000, 0.000000)">
			<g id="phone-L">
				<path id="Combined-Shape" class="st1" d="M-29.8,0h185.6C173.3,0,187,13.8,187,31.2v417.7c0,17.4-13.7,31.2-31.2,31.2H-29.8
					C-47.3,480-61,466.2-61,448.8V31.2C-61,13.8-47.3,0-29.8,0z M-46.8,433.3h219.7V42.5H-46.8V433.3z"/>
			</g>
			<g id="interscroller" transform="translate(14.000000, 42.000000)">
				<polygon id="Fill-1" class="st0" points="-61,390 159,390 159,0 -61,0 				"/>
				<polygon id="Fill-4" class="st2" points="14,361 142,361 142,355 14,355 				"/>
				<polygon id="Fill-5" class="st2" points="14,375 125,375 125,369 14,369 				"/>
				<polygon id="Fill-6" class="st2" points="-53,383 3,383 3,355 -53,355 				"/>
				<polygon id="Fill-7" class="st2" points="14,24 142,24 142,18 14,18 				"/>
				<polygon id="Fill-8" class="st2" points="14,39 125,39 125,33 14,33 				"/>
				<polygon id="Fill-9" class="st2" points="-58,40 4,40 4,18 -58,18 				"/>
				<polygon id="Fill-10" class="st3" points="-61,349 159,349 159,0 -61,0 				"/>
				<g id="Group-16" transform="translate(0.000000, 1.000000)" class="st4">
					<g id="Group-15">
						<g id="Combined-Shape-Clipped">
							<g id="path-1_1_">
							</g>
							<path id="Combined-Shape_1_" class="st0" d="M52.7,348.9c0-33.6,0-67.2,0-100.8v-3h-6v3.8c0,33.2-0.1,66.5,0,99.7
								 M12.3,349.4V152v-2.9H6v3.4c0,26.7,0,53.3,0,80c0,9.7-8.6,15.7-17.6,12.5c-4.5-1.6-7.1-4.8-8-9.5c-0.3-1.4-0.4-2.9-0.4-4.4
								c0-29.7-0.1-59.5,0-89.2c0-18,10.4-32.7,26.8-37.7c3.7-1.1,7.8-1.7,11.7-1.7c20.1-0.2,40.1,0.2,60.2-0.1
								c24.9-0.7,40.3,19.1,40.3,39.8c-0.1,29.7,0,59.5,0,89.2c0,9.7-6.3,15.6-15.3,14.1c-5.2-0.9-8.6-4-10-9.2
								c-0.5-1.8-0.5-3.7-0.5-5.5c0-26.2,0-52.4,0-78.6v-3.3h-5.9v3.7c0,65.9,0,131.9,0,197.8 M49.5,95.6
								C33.1,95.5,19.9,82.1,20,65.8c0.1-16.4,13.6-30,29.9-29.8c16.5,0.2,29.6,13.6,29.4,30.2C79.2,82.6,65.9,95.7,49.5,95.6z"/>
						</g>
					</g>
				</g>
			</g>
		</g>
	</g>
</g>
</svg>
