<?xml version="1.0" encoding="utf-8"?>
<!-- Generator: Adobe Illustrator 21.0.2, SVG Export Plug-In . SVG Version: 6.00 Build 0)  -->
<svg version="1.1" id="Layer_1" xmlns="http://www.w3.org/2000/svg" xmlns:xlink="http://www.w3.org/1999/xlink" x="0px" y="0px"
	 viewBox="0 0 248 480" style="enable-background:new 0 0 248 480;" xml:space="preserve">
<style type="text/css">
	.st0{fill:#353540;}
	.st1{fill:#FFFFFF;}
	.st2{fill:#4FDEE6;}
	.st3{fill:#E7E7E7;}
	.st4{opacity:0.5;}
</style>
<title>Artboard@2x</title>
<desc>Created with Sketch.</desc>
<g id="Page-1_1_">
	<g id="Artboard">
		<g id="phone-L" transform="translate(61.000000, 0.000000)">
			<path id="Combined-Shape" class="st0" d="M-29.8,0h185.6C173.3,0,187,13.8,187,31.2v417.7c0,17.4-13.7,31.2-31.2,31.2H-29.8
				C-47.3,480-61,466.2-61,448.8V31.2C-61,13.8-47.3,0-29.8,0z M-46.8,433.3h219.7V42.5H-46.8V433.3z"/>
		</g>
		<g id="interscroller-copy" transform="translate(75.000000, 42.000000)">
			<g id="Page-1">
				<polygon id="Fill-1" class="st1" points="-61,392 159,392 159,0 -61,0 				"/>
				<polygon id="Fill-2" class="st2" points="-61,274 159,274 159,118 -61,118 				"/>
				<polygon id="Fill-8" class="st3" points="25,296 109,296 109,290 25,290 				"/>
				<polygon id="Fill-9" class="st3" points="25,310 139,310 139,304 25,304 				"/>
				<polygon id="Fill-10" class="st3" points="25,360 145,360 145,354 25,354 				"/>
				<polygon id="Fill-11" class="st3" points="25,374 136,374 136,368 25,368 				"/>
				<polygon id="Fill-12" class="st3" points="-50,337 14,337 14,290 -50,290 				"/>
				<polygon id="Fill-13" class="st3" points="25,324 145,324 145,318 25,318 				"/>
				<polygon id="Fill-14" class="st3" points="25,338 136,338 136,332 25,332 				"/>
				<polygon id="Fill-15" class="st3" points="-50,373 14,373 14,354 -50,354 				"/>
				<polygon id="Fill-8_1_" class="st3" points="23,60 107,60 107,54 23,54 				"/>
				<polygon id="Fill-9_1_" class="st3" points="23,74 137,74 137,68 23,68 				"/>
				<polygon id="Fill-10_1_" class="st3" points="23,88 143,88 143,82 23,82 				"/>
				<polygon id="Fill-12_1_" class="st3" points="-53,101 11,101 11,54 -53,54 				"/>
				<polygon id="Fill-13_1_" class="st3" points="23,24 143,24 143,18 23,18 				"/>
				<polygon id="Fill-14_1_" class="st3" points="23,38 134,38 134,32 23,32 				"/>
				<polygon id="Fill-15_1_" class="st3" points="-53,37 11,37 11,18 -53,18 				"/>
				<g id="Group-16" transform="translate(41.000000, 34.000000)" class="st4">
					<path id="Combined-Shape_1_" class="st1" d="M11.1,240.3c0-9.8,0-19.7,0-29.5v-3H5.2v3.7c0,9.6,0,19.2,0,28.8 M-29.1,240.3
						V115.4v-2.9h-6.1v3.3c0,26.5,0,53,0,79.5c0,9.6-8.5,15.6-17.5,12.4c-4.4-1.6-7.1-4.8-7.9-9.4c-0.3-1.4-0.4-2.9-0.4-4.4
						c0-29.5-0.1-59.1,0-88.6c0-17.9,10.3-32.5,26.6-37.5c3.7-1.1,7.8-1.7,11.7-1.7C-2.8,66,17.1,66.3,37,66
						c24.7-0.4,40.1,19.3,40,39.8c-0.1,29.5,0,59.1,0,88.6c0,9.7-6.3,15.4-15.2,14c-5.2-0.9-8.6-4-9.9-9.1c-0.5-1.8-0.5-3.6-0.5-5.5
						c0-26,0-52.1,0-78.1v-3.3h-5.9v3.6c0,41.3,0,82.6,0,123.9"/>
				</g>
				<polygon id="Fill-11_1_" class="st3" points="23,102 134,102 134,96 23,96 				"/>
			</g>
		</g>
	</g>
</g>
</svg>
