<?xml version="1.0" encoding="utf-8"?>
<!-- Generator: Adobe Illustrator 16.0.0, SVG Export Plug-In . SVG Version: 6.00 Build 0)  -->
<!DOCTYPE svg PUBLIC "-//W3C//DTD SVG 1.1//EN" "http://www.w3.org/Graphics/SVG/1.1/DTD/svg11.dtd">
<svg version="1.1" id="Layer_1" xmlns="http://www.w3.org/2000/svg" xmlns:xlink="http://www.w3.org/1999/xlink" x="0px" y="0px"
	 width="198.086px" height="198.089px" viewBox="0 0 198.086 198.089" enable-background="new 0 0 198.086 198.089"
	 xml:space="preserve">
<g>
	<g>
		<path fill="#E3622E" d="M23.502,0.238C10.576,0.238,0,10.813,0,23.74v150.981c0,12.926,10.576,23.502,23.502,23.502H174.48
			c12.926,0,23.502-10.576,23.502-23.502V23.74c0-12.926-10.576-23.502-23.502-23.502H23.502z M191.121,167.621
			c0,12.926-10.576,23.502-23.502,23.502H30.468c-12.926,0-23.502-10.576-23.502-23.502V30.467
			c0-12.926,10.576-23.502,23.502-23.502h137.151c12.926,0,23.502,10.576,23.502,23.502V167.621z"/>
	</g>
</g>
</svg>
