<?xml version="1.0" encoding="utf-8"?>
<!-- Generator: Adobe Illustrator 16.0.0, SVG Export Plug-In . SVG Version: 6.00 Build 0)  -->
<!DOCTYPE svg PUBLIC "-//W3C//DTD SVG 1.1//EN" "http://www.w3.org/Graphics/SVG/1.1/DTD/svg11.dtd">
<svg version="1.1" id="Layer_1" xmlns="http://www.w3.org/2000/svg" xmlns:xlink="http://www.w3.org/1999/xlink" x="0px" y="0px"
	 width="198.086px" height="198.089px" viewBox="0 0 198.086 198.089" enable-background="new 0 0 198.086 198.089"
	 xml:space="preserve">
<g>
	<path d="M198.086,172.809c0,13.903-11.376,25.28-25.279,25.28H25.28c-13.904,0-25.28-11.377-25.28-25.28V25.28
		C0,11.376,11.376,0,25.28,0h147.527c13.904,0,25.28,11.376,25.28,25.28L198.086,172.809L198.086,172.809z"/>
</g>
<g>
	<g id="XMLID_9_">
		<g>
			<path fill="#31C5F4" d="M82.08,145.224c1.397-3.773,2.794-7.533,4.341-11.665c-1.834-0.235-3.192-0.405-4.739-0.595
				c0,4.381,0,8.283,0,12.193C81.818,145.177,81.949,145.199,82.08,145.224z M91.316,147.234c1.501-3.891,3.022-7.768,4.693-12.095
				c-1.547-0.347-3.198-1.261-4.021-0.771c-0.862,0.502-1.221,2.336-1.286,3.623c-0.176,3.029-0.059,6.07-0.059,9.119
				C90.859,147.149,91.087,147.182,91.316,147.234z M139.579,50.571c5.079,0.607,10.183,0.953,15.209,1.801
				c2.278,0.379,4.394,1.704,6.586,2.598c-1.658,1.867-3.017,4.177-5.033,5.516c-5.79,3.832-11.847,7.258-17.786,10.861
				c-1.254,0.764-2.449,1.625-3.479,2.311c0.718,3.505,2.839,4.302,5.776,4.445c7.056,0.339,14.104,0.868,21.129,1.541
				c1.299,0.117,2.506,1.247,3.752,1.906c0,4.36,0,8.708,0,13.061c-0.045,3.264-2.068,4.556-4.974,5.184
				c-2.212,0.476-4.334,1.344-6.521,1.924c-1.69,0.445-2.461,1.293-2.448,3.166c0.026,3.369,0.124,6.783-0.463,10.066
				c-0.601,3.315-1.927,6.514-3.095,9.705c-0.188,0.529-1.285,0.666-1.879,1.116c-3.361,2.521-7.023,4.739-9.968,7.709
				c-3.237,3.244-3.133,7.931-3.519,12.22c-0.659,7.336-1.717,14.699-1.481,22.004c0.117,3.727,0.039,6.266-3.512,7.846
				c-0.438,0-0.875,0-1.306,0c-3.688-0.979-3.942-3.721-3.942-6.959c0.021-9.092,0.039-18.205-0.478-27.277
				c-0.293-5.24-2.695-6.137-7.715-4.262c-1.789,0.666-3.969,0.849-5.867,0.555c-3.577-0.548-7.088-1.605-10.672-2.467
				c-2.213,5.111-4.256,10.006-6.475,14.836c-1.436,3.146-2.167,5.927,0.672,8.896c0.953,0.992,1.423,3.897,0.718,4.654
				c-0.979,1.064-3.368,1.501-4.948,1.195c-3.597-0.699-7.076-1.984-10.581-3.094c-2.918-0.914-3.316-2.188-1.671-4.851
				c0.724-1.168,1.991-2.389,1.971-3.569c-0.079-7.475-0.457-14.941-0.738-22.455c-7.905-1.918-15.509-3.76-23.472-5.697
				c0,2.761-0.052,4.928,0.006,7.088c0.242,8.551,0.601,17.115,0.718,25.68c0.02,1.48-0.555,3.223-1.449,4.405
				c-1.306,1.75-3.211,0.705-4.19-0.438c-0.862-1.004-1.155-2.695-1.253-4.119c-0.13-1.696,0.438-3.445,0.3-5.129
				c-0.764-9.309-1.625-18.609-2.552-27.904c-0.078-0.758-0.764-1.92-1.384-2.082c-6.684-1.795-13.42-3.428-20.13-5.098
				c0-3.265,0-6.535,0-9.791c1.776-0.457,3.675-0.646,5.294-1.418c4.034-1.912,5.561-6.467,4.099-11.475
				c-1.044-3.597-0.666-4.289,2.957-4.922c6.488-1.168,12.982-2.285,18.812-3.309c1.044-1.678,1.541-3.172,2.559-4.021
				c14.393-11.899,28.871-23.681,43.29-35.542c8.955-7.369,17.852-14.81,26.775-22.219c0.867,0,1.735,0,2.61,0
				c0.81,0.222,1.606,0.522,2.415,0.64c5.17,0.711,10.333,1.397,15.62,2.102c-4.334,3.806-8.42,7.207-12.271,10.868
				c-2.142,2.043-3.733,4.576-2.664,7.853C134.004,49.429,136.674,50.225,139.579,50.571z M86.577,139.16
				c-2.043,3.604-3.779,7.297-4.948,11.155c-1.064,3.538,0.437,5.099,4.948,5.64C86.577,150.263,86.577,144.708,86.577,139.16z"/>
		</g>
	</g>
</g>
<g>
	<g>
		<g>
			<path fill="#C8C8C8" d="M23.502,0.238C10.576,0.238,0,10.813,0,23.74v150.981c0,12.926,10.576,23.502,23.502,23.502H174.48
				c12.926,0,23.502-10.576,23.502-23.502V23.74c0-12.926-10.576-23.502-23.502-23.502H23.502z M191.121,167.621
				c0,12.926-10.576,23.502-23.502,23.502H30.468c-12.926,0-23.502-10.576-23.502-23.502V30.467
				c0-12.926,10.576-23.502,23.502-23.502h137.151c12.926,0,23.502,10.576,23.502,23.502V167.621z"/>
		</g>
	</g>
</g>
</svg>
