<?xml version="1.0" encoding="utf-8"?>
<!-- Generator: Adobe Illustrator 16.0.0, SVG Export Plug-In . SVG Version: 6.00 Build 0)  -->
<!DOCTYPE svg PUBLIC "-//W3C//DTD SVG 1.1//EN" "http://www.w3.org/Graphics/SVG/1.1/DTD/svg11.dtd">
<svg version="1.1" id="Layer_1" xmlns="http://www.w3.org/2000/svg" xmlns:xlink="http://www.w3.org/1999/xlink" x="0px" y="0px"
	 width="198.086px" height="198.089px" viewBox="0 0 198.086 198.089" enable-background="new 0 0 198.086 198.089"
	 xml:space="preserve">
<g>
	<path d="M198.086,172.809c0,13.904-11.376,25.28-25.28,25.28H25.28c-13.904,0-25.28-11.376-25.28-25.28V25.28
		C0,11.376,11.376,0,25.28,0h147.527c13.904,0,25.28,11.376,25.28,25.28V172.809z"/>
</g>
<g>
	<g id="XMLID_9_">
		<g>
			<path fill="#31C5F4" d="M82.08,145.224c1.397-3.773,2.794-7.533,4.341-11.665c-1.834-0.235-3.192-0.405-4.739-0.594
				c0,4.38,0,8.283,0,12.193C81.818,145.178,81.949,145.198,82.08,145.224z M91.316,147.234c1.501-3.89,3.022-7.768,4.693-12.095
				c-1.547-0.346-3.198-1.26-4.021-0.77c-0.862,0.502-1.221,2.336-1.286,3.623c-0.176,3.029-0.059,6.07-0.059,9.119
				C90.859,147.149,91.087,147.182,91.316,147.234z M139.579,50.571c5.079,0.607,10.183,0.953,15.209,1.801
				c2.278,0.379,4.393,1.704,6.586,2.598c-1.658,1.867-3.016,4.177-5.033,5.516c-5.79,3.832-11.847,7.258-17.787,10.861
				c-1.253,0.764-2.448,1.625-3.479,2.311c0.718,3.505,2.839,4.302,5.776,4.445c7.056,0.339,14.105,0.868,21.129,1.541
				c1.299,0.117,2.507,1.247,3.753,1.906c0,4.36,0,8.708,0,13.061c-0.046,3.264-2.069,4.556-4.974,5.183
				c-2.212,0.476-4.334,1.344-6.521,1.925c-1.69,0.444-2.461,1.292-2.448,3.166c0.026,3.368,0.124,6.782-0.463,10.065
				c-0.601,3.316-1.926,6.514-3.094,9.706c-0.189,0.529-1.286,0.666-1.88,1.116c-3.361,2.52-7.023,4.739-9.967,7.709
				c-3.238,3.244-3.133,7.931-3.519,12.219c-0.659,7.337-1.717,14.7-1.481,22.004c0.117,3.727,0.039,6.266-3.512,7.846
				c-0.438,0-0.875,0-1.306,0c-3.688-0.979-3.942-3.721-3.942-6.958c0.02-9.093,0.039-18.205-0.477-27.278
				c-0.294-5.241-2.696-6.136-7.715-4.262c-1.789,0.666-3.969,0.849-5.868,0.555c-3.577-0.548-7.088-1.605-10.672-2.467
				c-2.213,5.111-4.256,10.006-6.475,14.836c-1.436,3.146-2.167,5.927,0.672,8.897c0.953,0.992,1.423,3.897,0.718,4.654
				c-0.979,1.064-3.368,1.501-4.948,1.195c-3.597-0.699-7.076-1.984-10.581-3.094c-2.918-0.914-3.316-2.187-1.671-4.85
				c0.724-1.168,1.991-2.389,1.971-3.57c-0.079-7.474-0.457-14.941-0.738-22.454c-7.905-1.919-15.509-3.76-23.472-5.698
				c0,2.761-0.052,4.928,0.006,7.088c0.242,8.551,0.601,17.115,0.718,25.679c0.02,1.481-0.555,3.224-1.449,4.406
				c-1.306,1.75-3.211,0.705-4.19-0.438c-0.862-1.005-1.155-2.696-1.253-4.119c-0.13-1.697,0.438-3.446,0.3-5.13
				c-0.764-9.308-1.625-18.609-2.552-27.904c-0.078-0.757-0.764-1.919-1.384-2.082c-6.684-1.795-13.42-3.427-20.13-5.098
				c0-3.264,0-6.534,0-9.791c1.776-0.457,3.675-0.646,5.294-1.417c4.034-1.912,5.561-6.468,4.099-11.475
				c-1.044-3.597-0.666-4.289,2.957-4.922c6.488-1.168,12.982-2.285,18.812-3.309c1.044-1.678,1.541-3.172,2.559-4.021
				c14.393-11.899,28.871-23.681,43.29-35.542c8.955-7.369,17.852-14.81,26.775-22.219c0.868,0,1.736,0,2.611,0
				c0.81,0.222,1.606,0.522,2.415,0.64c5.17,0.711,10.333,1.397,15.62,2.102c-4.334,3.806-8.42,7.207-12.271,10.868
				c-2.141,2.043-3.733,4.576-2.663,7.853C134.004,49.429,136.674,50.225,139.579,50.571z M86.577,139.16
				c-2.043,3.603-3.779,7.297-4.948,11.155c-1.064,3.538,0.437,5.098,4.948,5.639C86.577,150.263,86.577,144.708,86.577,139.16z"/>
		</g>
		<g>
		</g>
	</g>
</g>
</svg>
