<?xml version="1.0" encoding="utf-8"?>
<!-- Generator: Adobe Illustrator 21.0.2, SVG Export Plug-In . SVG Version: 6.00 Build 0)  -->
<svg version="1.1" id="Layer_1" xmlns="http://www.w3.org/2000/svg" xmlns:xlink="http://www.w3.org/1999/xlink" x="0px" y="0px"
	 viewBox="0 0 248 480" style="enable-background:new 0 0 248 480;" xml:space="preserve">
<style type="text/css">
	.st0{fill:#353540;}
	.st1{fill:#FFFFFF;}
	.st2{fill:#E7E7E7;}
	.st3{fill:#4FDEE6;}
	.st4{opacity:0.5;}
</style>
<title>RM-reveal-2@2x</title>
<desc>Created with Sketch.</desc>
<g id="_x30_1-format-RM">
	<g id="RM-reveal-2">
		<g id="RM-reveal_x40_2x" transform="translate(61.000000, 0.000000)">
			<g id="phone-L">
				<path id="Combined-Shape" class="st0" d="M-29.8,0h185.6C173.3,0,187,13.8,187,31.2v417.7c0,17.4-13.7,31.2-31.2,31.2H-29.8
					C-47.3,480-61,466.2-61,448.8V31.2C-61,13.8-47.3,0-29.8,0z M-46.8,433.3h219.7V42.5H-46.8V433.3z"/>
			</g>
			<g id="reveal" transform="translate(14.000000, 42.000000)">
				<polygon id="Fill-1" class="st1" points="-61,392 160,392 160,0 -61,0 				"/>
				<polygon id="Fill-2" class="st2" points="-61,36 160,36 160,0 -61,0 				"/>
				<polygon id="Fill-3" class="st2" points="-53,205 151,205 151,51 -53,51 				"/>
				<polygon id="Fill-4" class="st2" points="15,224 141,224 141,218 15,218 				"/>
				<polygon id="Fill-5" class="st2" points="15,238 113,238 113,232 15,232 				"/>
				<polygon id="Fill-6" class="st2" points="15,252 121,252 121,246 15,246 				"/>
				<polygon id="Fill-7" class="st2" points="15,266 127,266 127,260 15,260 				"/>
				<polygon id="Fill-8" class="st2" points="-53,266 3,266 3,218 -53,218 				"/>
				<polygon id="Fill-9" class="st2" points="15,286 91,286 91,280 15,280 				"/>
				<polygon id="Fill-10" class="st2" points="15,300 121,300 121,294 15,294 				"/>
				<polygon id="Fill-11" class="st2" points="15,314 133,314 133,308 15,308 				"/>
				<polygon id="Fill-12" class="st2" points="15,328 119,328 119,322 15,322 				"/>
				<polygon id="Fill-13" class="st2" points="-53,328 6,328 6,280 -53,280 				"/>
				<polygon id="Fill-9_1_" class="st2" points="15,348 91,348 91,342 15,342 				"/>
				<polygon id="Fill-10_1_" class="st2" points="15,361 121,361 121,355 15,355 				"/>
				<polygon id="Fill-11_1_" class="st2" points="15,375 133,375 133,369 15,369 				"/>
				<polygon id="Fill-13_1_" class="st2" points="-53,384 6,384 6,342 -53,342 				"/>
				<polygon id="Rectangle-7" class="st3" points="-61,355 160,355 160,392 -61,392 				"/>
				<g id="man" transform="translate(79.000000, 232.000000)" class="st4">
					<path id="Combined-Shape_1_" class="st3" d="M1.2,47.6c0,13.3,0,26.6,0,39.9c0,4.4-2.8,7-6.8,6.3c-2.4-0.4-3.9-1.8-4.5-4.1
						c-0.2-0.8-0.2-1.6-0.2-2.5c0-11.7,0-23.5,0-35.2v-1.5H-13v1.6c0,33.2,0,66.5,0,99.7c0,1,0,2.1-0.2,3.1
						c-0.8,3.9-4.1,6.1-8.3,5.8c-3.8-0.3-6.8-3.2-7-7c0-0.5,0-1.1,0-1.6c0-19.1,0-38.2,0-57.2v-1.3h-2.7v1.7c0,19.2,0,38.4,0,57.6
						c0,6.5-6.2,9.4-11.1,7.2c-2.8-1.2-4.1-3.6-4.3-6.6c0-0.5,0-0.9,0-1.4V51.9v-1.3h-2.7v1.5c0,11.9,0,23.9,0,35.8
						c0,4.3-3.8,7-7.9,5.6c-2-0.7-3.2-2.2-3.6-4.2c-0.1-0.7-0.2-1.3-0.2-2c0-13.3,0-26.6,0-40c0-8.1,4.7-14.7,12-16.9
						c1.7-0.5,3.5-0.8,5.3-0.8c9-0.1,18,0.1,27-0.1C-5.6,29.4,1.3,38.3,1.2,47.6z M-29.9,26.7c-7.3,0-13.2-6-13.2-13.3
						C-43.1,6-37-0.1-29.7,0c7.4,0.1,13.2,6.1,13.2,13.5C-16.6,20.9-22.5,26.7-29.9,26.7z"/>
				</g>
			</g>
		</g>
	</g>
</g>
</svg>
