<?xml version="1.0" encoding="UTF-8" standalone="no"?>
<svg width="100px" height="100px" viewBox="0 0 100 100" version="1.1" xmlns="http://www.w3.org/2000/svg" xmlns:xlink="http://www.w3.org/1999/xlink">
    <!-- Generator: Sketch 44.1 (41455) - http://www.bohemiancoding.com/sketch -->
    <title>HTML5@2x</title>
    <desc>Created with Sketch.</desc>
    <defs></defs>
    <g id="Page-1" stroke="none" stroke-width="1" fill="none" fill-rule="evenodd">
        <g id="product-icons" transform="translate(-110.000000, -140.000000)">
            <g id="Page-1" transform="translate(110.000000, 139.000000)">
                <g id="Group-10" transform="translate(0.000000, 0.359000)">
                    <g id="HTML5">
                        <path d="M100.0001,50.139703 C100.0001,77.480297 77.6141,99.6446535 50.0001,99.6446535 C22.3861,99.6446535 0.0001,77.480297 0.0001,50.139703 C0.0001,22.7991089 22.3861,0.634752475 50.0001,0.634752475 C77.6141,0.634752475 100.0001,22.7991089 100.0001,50.139703" id="Fill-6" fill="#4FDEE6"></path>
                        <path d="M63.6793,43.370495 L42.5723,43.370495 L43.0913,48.7209901 L63.1603,48.7209901 L61.6113,64.7675248 L50.3523,67.8190099 L39.0933,64.7675248 L38.2983,56.5912871 L43.8593,56.5912871 L44.2263,60.6823762 L50.3523,62.3675248 L56.3853,60.7071287 L57.0023,53.9467327 L38.0883,53.9467327 L38.0553,54.0467327 L36.5063,38.0635644 L64.1913,38.0635644 L63.6793,43.370495 Z M28.3523,29.3477228 L32.4753,72.0358416 L50.3523,76.8724752 L68.2223,72.0358416 L72.3523,29.3477228 L28.3523,29.3477228 Z" id="Fill-8" fill="#FFFFFF"></path>
                    </g>
                </g>
            </g>
        </g>
    </g>
</svg>