<?xml version="1.0" encoding="utf-8"?>
<!-- Generator: Adobe Illustrator 16.0.0, SVG Export Plug-In . SVG Version: 6.00 Build 0)  -->
<!DOCTYPE svg PUBLIC "-//W3C//DTD SVG 1.1//EN" "http://www.w3.org/Graphics/SVG/1.1/DTD/svg11.dtd">
<svg version="1.1" id="Layer_1" xmlns="http://www.w3.org/2000/svg" xmlns:xlink="http://www.w3.org/1999/xlink" x="0px" y="0px"
	 width="198.086px" height="198.089px" viewBox="0 0 198.086 198.089" enable-background="new 0 0 198.086 198.089"
	 xml:space="preserve">
<g>
	<path d="M197.982,172.957c0,13.896-11.371,25.268-25.268,25.268H25.267C11.37,198.223,0,186.853,0,172.957V25.504
		C0,11.608,11.37,0.238,25.267,0.238h147.449c13.896,0,25.267,11.37,25.267,25.267V172.957L197.982,172.957z"/>
</g>
<g>
	<g id="XMLID_13_">
		<g>
			<path fill="#AF6EAE" d="M161.425,29.51c0.439,0.302,0.418,1.283,0.687,2.241c-6.332-1.343-12.328-2.619-18.432-3.911
				c0.193-0.56,0.35-1.011,0.568-1.617c-3.104-0.658-6.131-1.383-9.186-1.91c-1.85-0.319-3.75-0.489-5.623-0.437
				c-5.709,0.164-9.354,3.586-10.139,9.26c-1.57,11.295-3.183,22.574-4.775,33.861c-1.258,8.921-2.506,17.847-3.762,26.762
				c-1.619,11.442-3.22,22.883-4.852,34.321c-1.559,10.939-3.127,21.875-4.708,32.815c-1.054,7.335-4.993,12.522-11.697,15.647
				c-0.404,0.188-0.771,0.465-1.156,0.705c-1.858,0.525-3.715,1.047-5.569,1.572c-2.151,0.129-4.291,0.377-6.436,0.364
				c-6.137-0.036-12.031-1.235-17.421-4.271c-4.413-2.498-7.057-6.315-7.781-11.406c-0.773-5.455,0.457-10.646,1.997-15.795
				c1.035-3.463,2.333-6.871,3.125-10.387c1.731-7.725,1.223-15.242-2.9-22.246c-2.668-4.541-6.718-6.965-11.806-7.853
				c-1.531-0.272-3.054-0.578-4.58-1.073c14.692-5.863,29.377-11.723,44.066-17.588c0.064,0.066,0.128,0.13,0.196,0.2
				c-0.232,0.359-0.46,0.739-0.697,1.1c-1.419,2.216-2.818,4.46-3.18,7.121c-0.157,1.146-0.163,2.412,0.157,3.517
				c2.182,7.606,3.447,15.357,3.568,23.256c0.119,7.076-0.58,14.086-2.8,20.863c-1.263,3.873-2.736,7.686-4.108,11.523
				c-0.138,0.396-0.27,0.807-0.364,1.215c-0.727,3.363,0.49,3.979,3.208,4.402c1.128,0.177,2.135-0.366,2.485-1.469
				c0.709-2.274,1.322-4.582,1.876-6.896c1.546-6.474,3.044-12.969,4.556-19.454c1.228-5.285,2.451-10.576,3.677-15.865
				c0.039-0.15,0.022-0.303,0.042-0.539c-1.343-0.315-2.679-0.629-4.098-0.959c0.805-3.715,1.585-7.348,2.392-11.082
				c1.433,0.283,2.78,0.555,4.318,0.862c0.707-3.04,1.396-6.017,2.128-9.163c-1.338-0.314-2.624-0.608-4.039-0.93
				c0.811-3.729,1.598-7.364,2.397-11.089c1.391,0.271,2.703,0.528,4.175,0.822c0.364-1.521,0.729-3.039,1.088-4.561
				c0.071-0.302,0.101-0.606,0.177-0.907c0.583-2.516,0.588-2.518-2.023-3.026c-0.299-0.053-0.594-0.135-1.051-0.244
				c0.225-1.101,0.452-2.171,0.678-3.244c0.496-2.34,1.026-4.67,1.483-7.011c0.143-0.703,0.427-0.898,1.113-0.71
				c0.886,0.238,1.788,0.399,2.854,0.63c0.294-1.241,0.588-2.414,0.848-3.604c1.508-6.802,3.039-13.603,4.494-20.42
				c0.887-4.152,1.855-8.274,3.543-12.183c1.797-4.195,4.196-7.983,7.737-10.924c1.251-1.049,2.731-1.822,4.116-2.721h0.002
				c1.188-0.333,2.377-0.667,3.561-1.007c1.98,0.152,4.045,0.019,5.934,0.521c2.426,0.657,4.712,1.847,7.082,2.755
				c2.303,0.872,4.642,1.647,6.947,2.517c1.067,0.405,1.07-0.531,1.527-1.145c1.27,0.346,2.59,0.707,3.914,1.066
				c2.188,0.604,4.374,1.22,6.57,1.797c0.543,0.147,0.818,0.363,0.871,0.986C158.618,26.682,159.607,28.305,161.425,29.51z"/>
		</g>
	</g>
</g>
<g>
	<g>
		<path fill="#E2622D" d="M23.502,0.238C10.576,0.238,0,10.813,0,23.74v150.981c0,12.926,10.576,23.502,23.502,23.502H174.48
			c12.926,0,23.502-10.576,23.502-23.502V23.74c0-12.926-10.576-23.502-23.502-23.502H23.502z M191.121,167.621
			c0,12.926-10.576,23.502-23.502,23.502H30.468c-12.926,0-23.502-10.576-23.502-23.502V30.467
			c0-12.926,10.576-23.502,23.502-23.502h137.151c12.926,0,23.502,10.576,23.502,23.502V167.621z"/>
	</g>
</g>
</svg>
