<?xml version="1.0" encoding="UTF-8" standalone="no"?>
<svg width="100px" height="100px" viewBox="0 0 100 100" version="1.1" xmlns="http://www.w3.org/2000/svg" xmlns:xlink="http://www.w3.org/1999/xlink">
    <!-- Generator: Sketch 44.1 (41455) - http://www.bohemiancoding.com/sketch -->
    <title>SNAP@2x</title>
    <desc>Created with Sketch.</desc>
    <defs></defs>
    <g id="Page-1" stroke="none" stroke-width="1" fill="none" fill-rule="evenodd">
        <g id="product-icons" transform="translate(-833.000000, -140.000000)">
            <g id="Page-1" transform="translate(110.000000, 139.000000)">
                <g id="SNAP" transform="translate(723.000000, 1.000000)">
                    <path d="M99.9406931,50.0001 C99.9406931,77.6141 77.7763366,100.0001 50.4357426,100.0001 C23.0951485,100.0001 0.930792079,77.6141 0.930792079,50.0001 C0.930792079,22.3861 23.0951485,0.0001 50.4357426,0.0001 C77.7763366,0.0001 99.9406931,22.3861 99.9406931,50.0001" id="Fill-27" fill="#FFFC00"></path>
                    <path d="M50.7485149,73.4708 C50.6207921,73.4708 50.4950495,73.4668 50.370297,73.4608 C50.290099,73.4678 50.2059406,73.4708 50.1227723,73.4708 C47.1891089,73.4708 45.3059406,72.1268 43.4861386,70.8258 C42.2287129,69.9288 41.0425743,69.0818 39.6445545,68.8468 C38.9623762,68.7328 38.2841584,68.6758 37.6277228,68.6758 C36.4455446,68.6758 35.5128713,68.8598 34.8326733,68.9938 C34.4188119,69.0758 34.0613861,69.1458 33.7910891,69.1458 C33.5069307,69.1458 33.2,69.0838 33.0673267,68.6238 C32.950495,68.2248 32.8673267,67.8388 32.7861386,67.4648 C32.5782178,66.5028 32.4306931,65.9108 32.0316832,65.8488 C27.3792079,65.1228 26.0475248,64.1338 25.750495,63.4308 C25.7079208,63.3308 25.6851485,63.2298 25.6792079,63.1308 C25.6643564,62.8608 25.8524752,62.6228 26.1168317,62.5788 C33.2693069,61.3898 36.4762376,54.0068 36.609901,53.6928 C36.6128713,53.6848 36.6168317,53.6768 36.6207921,53.6678 C37.0584158,52.7718 37.1445545,51.9938 36.8762376,51.3568 C36.3861386,50.1878 34.7851485,49.6748 33.7257426,49.3348 C33.4663366,49.2528 33.219802,49.1738 33.0267327,49.0968 C30.9118812,48.2528 30.7366337,47.3858 30.8188119,46.9438 C30.9613861,46.1918 31.9564356,45.6668 32.7613861,45.6668 C32.9831683,45.6668 33.1772277,45.7068 33.3405941,45.7838 C34.2920792,46.2338 35.149505,46.4618 35.8891089,46.4618 C36.9108911,46.4618 37.3574257,46.0278 37.4108911,45.9708 C37.3851485,45.4818 37.3534653,44.9718 37.319802,44.4448 C37.1069307,41.0298 36.8435644,36.7858 37.9128713,34.3638 C41.1188119,27.1028 47.9188119,26.5388 49.9257426,26.5388 C49.9772277,26.5388 50.8059406,26.5298 50.8059406,26.5298 L50.9247525,26.5298 C52.9366337,26.5298 59.750495,27.0948 62.9584158,34.3598 C64.0287129,36.7828 63.7643564,41.0298 63.550495,44.4428 L63.5415842,44.5908 C63.5118812,45.0658 63.4831683,45.5278 63.4594059,45.9708 C63.5108911,46.0228 63.9207921,46.4218 64.8475248,46.4578 L64.8485149,46.4578 C65.5534653,46.4308 66.3623762,46.2038 67.250495,45.7838 C67.5108911,45.6608 67.8,45.6348 67.9960396,45.6348 C68.2970297,45.6348 68.6019802,45.6938 68.8544554,45.8008 L68.870297,45.8068 C69.5881188,46.0638 70.0584158,46.5728 70.0693069,47.1038 C70.0782178,47.6038 69.7,48.3568 67.8445545,49.0968 C67.6524752,49.1728 67.4069307,49.2518 67.1465347,49.3348 C66.0861386,49.6748 64.4861386,50.1878 63.9950495,51.3558 C63.7267327,51.9928 63.8128713,52.7708 64.250495,53.6668 C64.2544554,53.6758 64.2584158,53.6838 64.2613861,53.6928 C64.3950495,54.0068 67.6,61.3878 74.7544554,62.5778 C75.0188119,62.6218 75.2079208,62.8598 75.1930693,63.1298 C75.1871287,63.2308 75.1623762,63.3328 75.119802,63.4318 C74.8247525,64.1298 73.4940594,65.1178 68.839604,65.8448 C68.460396,65.9038 68.3128713,66.4038 68.0851485,67.4528 C68.0029703,67.8348 67.919802,68.2098 67.8049505,68.6048 C67.7049505,68.9468 67.4940594,69.1068 67.1386139,69.1068 L67.0811881,69.1068 C66.8346535,69.1068 66.4841584,69.0628 66.039604,68.9738 C65.2514851,68.8188 64.3683168,68.6758 63.2445545,68.6758 C62.5881188,68.6758 61.9079208,68.7328 61.2267327,68.8468 C59.829703,69.0818 58.6445545,69.9278 57.390099,70.8238 C55.5653465,72.1268 53.6821782,73.4708 50.7485149,73.4708" id="Fill-41" fill="#FFFFFF"></path>
                    <path d="M50.9244554,26.0001 L50.9224752,26.0001 C50.8789109,26.0001 50.8383168,26.0001 50.799703,26.0011 C50.799703,26.0011 49.9888119,26.0091 49.9244554,26.0091 C47.8383168,26.0091 40.7690099,26.5961 37.4343564,34.1481 C36.3125743,36.6891 36.5808911,41.0041 36.7967327,44.4721 C36.8224752,44.8811 36.8492079,45.3051 36.8719802,45.7151 C36.699703,45.8121 36.3848515,45.9321 35.8888119,45.9321 C35.2264356,45.9321 34.4442574,45.7211 33.5630693,45.3041 C33.3294059,45.1931 33.060099,45.1381 32.7620792,45.1381 C31.730396,45.1381 30.4967327,45.8231 30.3036634,46.8451 C30.1660396,47.5811 30.4917822,48.6541 32.8333663,49.5881 C33.0442574,49.6731 33.2987129,49.7541 33.5670297,49.8401 C34.5343564,50.1501 35.9967327,50.6191 36.3937624,51.5631 C36.599703,52.0521 36.5175248,52.6821 36.1511881,53.4341 C36.1422772,53.4511 36.1343564,53.4671 36.1274257,53.4851 C35.9987129,53.7881 32.9036634,60.9141 26.0313861,62.0561 C25.5036634,62.1451 25.1254455,62.6211 25.1551485,63.1611 C25.1640594,63.3211 25.2016832,63.4811 25.2670297,63.6361 C25.7828713,64.8541 27.9591089,65.7461 31.919505,66.3671 C32.0521782,66.5481 32.189802,67.1871 32.2739604,67.5761 C32.3571287,67.9601 32.4422772,68.3561 32.5640594,68.7741 C32.6838614,69.1851 32.9937624,69.6761 33.7907921,69.6761 C34.1125743,69.6761 34.4927723,69.6011 34.9323762,69.5141 C35.5927723,69.3831 36.4967327,69.2051 37.6274257,69.2051 C38.2551485,69.2051 38.9046535,69.2601 39.560099,69.3701 C40.8383168,69.5851 41.9244554,70.3601 43.1818812,71.2581 C44.9828713,72.5441 47.0224752,74.0001 50.1224752,74.0001 C50.2076238,74.0001 50.2937624,73.9981 50.3779208,73.9911 C50.4789109,73.9961 50.609604,74.0001 50.7482178,74.0001 C53.8492079,74.0001 55.8888119,72.5441 57.6888119,71.2581 C58.9482178,70.3591 60.0343564,69.5841 61.3125743,69.3701 C61.9660396,69.2601 62.6165347,69.2051 63.2442574,69.2051 C64.3234653,69.2051 65.1779208,69.3441 65.9393069,69.4941 C66.4165347,69.5881 66.8006931,69.6361 67.0808911,69.6361 L67.1105941,69.6371 L67.1383168,69.6371 C67.7274257,69.6371 68.1432673,69.3221 68.3076238,68.7521 C68.4274257,68.3431 68.5135644,67.9571 68.5977228,67.5661 C68.6818812,67.1781 68.8185149,66.5421 68.9511881,66.3621 C72.9125743,65.7411 75.0878218,64.8501 75.6026733,63.6381 C75.6690099,63.4821 75.7066337,63.3211 75.7165347,63.1591 C75.7452475,62.6191 75.3680198,62.1441 74.8393069,62.0561 C67.9650495,60.9121 64.8719802,53.7871 64.7442574,53.4841 C64.7363366,53.4671 64.7284158,53.4501 64.720495,53.4331 C64.3531683,52.6811 64.2719802,52.0521 64.4769307,51.5631 C64.8739604,50.6191 66.3353465,50.1501 67.3026733,49.8401 C67.5739604,49.7531 67.8284158,49.6721 68.0373267,49.5881 C69.7511881,48.9051 70.6115842,48.0651 70.5927723,47.0931 C70.5789109,46.3301 69.989802,45.6481 69.0541584,45.3111 L69.0511881,45.3101 C68.7363366,45.1781 68.3620792,45.1061 67.9967327,45.1061 C67.7462376,45.1061 67.3749505,45.1401 67.0284158,45.3041 C66.2125743,45.6901 65.4808911,45.8991 64.8482178,45.9281 C64.430396,45.9081 64.1561386,45.8021 63.999703,45.7151 C64.019505,45.3631 64.0422772,45.0001 64.0650495,44.6221 L64.0739604,44.4751 C64.2907921,41.0051 64.560099,36.6861 63.4373267,34.1441 C60.1006931,26.5881 53.0165347,26.0001 50.9244554,26.0001 M50.9244554,27.0591 C52.8294059,27.0591 59.3888119,27.5751 62.479901,34.5751 C63.4977228,36.8791 63.2373267,41.0551 63.0284158,44.4091 C62.9947525,44.9411 62.9620792,45.4571 62.9363366,45.9501 L62.9254455,46.1611 L63.0650495,46.3191 C63.1214851,46.3821 63.6511881,46.9411 64.8274257,46.9871 L64.8472277,46.9871 L64.8660396,46.9871 C65.6442574,46.9581 66.520495,46.7141 67.4729703,46.2631 C67.6125743,46.1971 67.7987129,46.1651 67.9967327,46.1651 C68.2214851,46.1651 68.460099,46.2071 68.6581188,46.2911 L68.6868317,46.3031 C69.1858416,46.4791 69.5393069,46.8131 69.5452475,47.1141 C69.5482178,47.2851 69.4214851,47.8981 67.6521782,48.6041 C67.4789109,48.6731 67.2511881,48.7461 66.9878218,48.8301 C65.8373267,49.2001 64.0977228,49.7561 63.5115842,51.1481 C63.1818812,51.9351 63.2719802,52.8601 63.779901,53.9011 C63.9888119,54.3941 67.2739604,61.8701 74.6690099,63.1011 C74.6670297,63.1351 74.6591089,63.1751 74.6393069,63.2201 C74.5135644,63.5191 73.7165347,64.5481 68.760099,65.3201 C67.9838614,65.4411 67.7937624,66.3191 67.5729703,67.3401 C67.4947525,67.7061 67.4125743,68.0741 67.3016832,68.4551 C67.2680198,68.5711 67.2610891,68.5781 67.1383168,68.5781 L67.0808911,68.5781 C66.8610891,68.5781 66.5264356,68.5311 66.140297,68.4551 C65.4373267,68.3161 64.4739604,68.1461 63.2442574,68.1461 C62.5581188,68.1461 61.850198,68.2061 61.140297,68.3251 C59.6244554,68.5801 58.389802,69.4611 57.0828713,70.3941 C55.3284158,71.6471 53.5155446,72.9411 50.7482178,72.9411 C50.6284158,72.9411 50.5105941,72.9381 50.3917822,72.9321 L50.360099,72.9301 L50.3284158,72.9331 C50.2610891,72.9391 50.1927723,72.9411 50.1224752,72.9411 C47.3561386,72.9411 45.5422772,71.6471 43.7878218,70.3951 C42.4818812,69.4611 41.2472277,68.5801 39.7313861,68.3251 C39.0214851,68.2061 38.3145545,68.1461 37.6274257,68.1461 C36.3977228,68.1461 35.4343564,68.3351 34.7313861,68.4741 C34.3442574,68.5511 34.0105941,68.6171 33.7907921,68.6171 C33.6115842,68.6171 33.6076238,68.6061 33.57,68.4751 C33.4591089,68.0931 33.3769307,67.7151 33.2987129,67.3511 C33.0779208,66.3291 32.8868317,65.4461 32.1115842,65.3261 C27.1551485,64.5531 26.3581188,63.5211 26.2323762,63.2231 C26.2125743,63.1771 26.2046535,63.1371 26.2026733,63.1021 C33.5967327,61.8711 36.8818812,54.3961 37.0907921,53.9021 C37.599703,52.8601 37.6888119,51.9351 37.3591089,51.1501 C36.7739604,49.7571 35.0353465,49.2001 33.8838614,48.8301 C33.619505,48.7461 33.3917822,48.6731 33.219505,48.6041 C31.7244554,48.0081 31.2660396,47.4071 31.3343564,47.0431 C31.4135644,46.6241 32.1333663,46.1971 32.7620792,46.1971 C32.9036634,46.1971 33.0264356,46.2191 33.1185149,46.2631 C34.1393069,46.7461 35.0719802,46.9911 35.8888119,46.9911 C37.1739604,46.9911 37.7462376,46.3871 37.8066337,46.3181 L37.9462376,46.1611 L37.9353465,45.9511 C37.9086139,45.4581 37.8769307,44.9431 37.8432673,44.4111 C37.6343564,41.0571 37.3739604,36.8841 38.3917822,34.5801 C41.4709901,27.6051 47.9987129,27.0681 49.9254455,27.0681 C49.9729703,27.0681 50.8105941,27.0601 50.8105941,27.0601 C50.8462376,27.0591 50.8838614,27.0591 50.9244554,27.0591" id="Fill-43" fill="#030303"></path>
                </g>
            </g>
        </g>
    </g>
</svg>