<?xml version="1.0" encoding="UTF-8" standalone="no"?>
<svg width="100px" height="100px" viewBox="0 0 100 100" version="1.1" xmlns="http://www.w3.org/2000/svg" xmlns:xlink="http://www.w3.org/1999/xlink">
    <!-- Generator: Sketch 44.1 (41455) - http://www.bohemiancoding.com/sketch -->
    <title>TW@2x</title>
    <desc>Created with Sketch.</desc>
    <defs></defs>
    <g id="Page-1" stroke="none" stroke-width="1" fill="none" fill-rule="evenodd">
        <g id="product-icons" transform="translate(-1124.000000, -140.000000)">
            <g id="Page-1" transform="translate(110.000000, 139.000000)">
                <g id="TW" transform="translate(1014.000000, 1.000000)">
                    <path d="M99.9653465,50.0001 C99.9653465,77.6141 77.8009901,100.0001 50.460396,100.0001 C23.119802,100.0001 0.955445545,77.6141 0.955445545,50.0001 C0.955445545,22.3861 23.119802,0.0001 50.460396,0.0001 C77.8009901,0.0001 99.9653465,22.3861 99.9653465,50.0001" id="Fill-31" fill="#1EA1F1"></path>
                    <path d="M43.8071287,69.0953 C61.3675248,69.0953 70.9724752,54.4013 70.9724752,41.6583 C70.9724752,41.2413 70.9724752,40.8253 70.9437624,40.4123 C72.8130693,39.0473 74.4259406,37.3573 75.7081188,35.4203 C73.9655446,36.2003 72.1170297,36.7123 70.2239604,36.9383 C72.2170297,35.7323 73.7081188,33.8373 74.4209901,31.6043 C72.5467327,32.7273 70.4972277,33.5193 68.3586139,33.9453 C64.7437624,30.0613 58.6952475,29.8743 54.849703,33.5263 C52.370495,35.8813 51.3190099,39.3903 52.0883168,42.7393 C44.4110891,42.3503 37.259604,38.6883 32.4110891,32.6643 C29.8784158,37.0713 31.1714851,42.7073 35.3675248,45.5373 C33.8477228,45.4913 32.3615842,45.0773 31.0348515,44.3303 L31.0348515,44.4523 C31.0358416,49.0423 34.2388119,52.9953 38.6942574,53.9053 C37.2883168,54.2923 35.8140594,54.3483 34.3823762,54.0703 C35.6338614,57.9983 39.2180198,60.6893 43.3021782,60.7663 C39.9219802,63.4503 35.7447525,64.9073 31.4457426,64.9033 C30.6863366,64.9013 29.9269307,64.8553 29.1734653,64.7633 C33.5388119,67.5943 38.62,69.0953 43.8071287,69.0873" id="Fill-39" fill="#FFFFFF"></path>
                </g>
            </g>
        </g>
    </g>
</svg>