<?xml version="1.0" encoding="UTF-8" standalone="no"?>
<svg width="430px" height="328px" viewBox="0 0 430 328" version="1.1" xmlns="http://www.w3.org/2000/svg" xmlns:xlink="http://www.w3.org/1999/xlink">
    <!-- Generator: Sketch 44.1 (41455) - http://www.bohemiancoding.com/sketch -->
    <title>RM-universal-exp-flex updated Copy@2x</title>
    <desc>Created with Sketch.</desc>
    <defs>
        <path d="M456.811594,347.682119 L456.811594,164.569536 C457.289059,157.335996 451.584999,151.642224 444.057971,151.821192 L360.57971,151.821192 C356.856622,151.821192 351.937142,153.489987 350.144928,156.456954 L350.144928,98.5099338 C350.144928,88.1503949 345.720109,83.4437086 333.913043,83.4437086 L163.478261,83.4437086 C152.696256,83.4437086 147.246377,87.9451659 147.246377,97.3509934 L147.246377,350 L0,350 L0,-5.68434189e-14 L480,-5.68434189e-14 L480,350 L456.811594,347.682119 Z" id="path-1"></path>
    </defs>
    <g id="01-format-RM" stroke="none" stroke-width="1" fill="none" fill-rule="evenodd">
        <g id="RM-universal-exp-flex-updated-Copy">
            <g id="Laptop" transform="translate(-23.000000, -30.000000)">
                <mask id="mask-2" fill="white">
                    <use xlink:href="#path-1"></use>
                </mask>
                <g id="Mask"></g>
                <g mask="url(#mask-2)">
                    <g transform="translate(23.188406, 30.132450)">
                        <g id="laptop">
                            <g id="Page-1" fill="#353540">
                                <path d="M22.0215633,8.00446068 C22.0215633,3.58371911 25.6066657,0 30.0181702,0 L401.140859,0 C405.557263,0 409.137466,3.57228293 409.137466,8.00446068 L409.137466,253.483143 C409.137466,257.903884 405.552364,261.487603 401.140859,261.487603 L30.0181702,261.487603 C25.6017662,261.487603 22.0215633,257.91532 22.0215633,253.483143 L22.0215633,8.00446068 Z M39.4070081,244.132231 L392.911051,244.132231 L392.911051,17.3553719 L39.4070081,17.3553719 L39.4070081,244.132231 Z" id="Fill-1"></path>
                                <path d="M430,271.23097 C430,270.324703 428.52763,269.586777 426.522911,269.586777 L3.47708895,269.586777 C1.47079224,269.586777 0,270.324703 0,271.23097 L0,276.163549 C0,276.719273 0.370854268,276.971576 1.15902965,277.259678 C10.7768672,279.110218 20.4727337,280 33.6118598,280 L396.38814,280 C409.527266,280 419.221555,279.110218 428.84097,277.259678 C429.627568,276.971576 430,276.719273 430,276.163549 C430,276.406861 430,271.23097 430,271.23097 Z" id="Fill-3"></path>
                            </g>
                        </g>
                        <g id="Laptop" transform="translate(39.420290, 17.384106)">
                            <polygon id="Fill-1" fill="#FFFFFF" points="0 227.152318 353.623188 227.152318 353.623188 0 0 0"></polygon>
                            <polygon id="Fill-4" fill="#E7E7E7" points="69.5652174 170.364238 165.797101 170.364238 165.797101 166.887417 69.5652174 166.887417"></polygon>
                            <polygon id="Fill-4-Copy" fill="#E7E7E7" points="243.478261 180.794702 339.710145 180.794702 339.710145 177.317881 243.478261 177.317881"></polygon>
                            <polygon id="Fill-5" fill="#E7E7E7" points="69.5652174 188.907285 143.768116 188.907285 143.768116 185.430464 69.5652174 185.430464"></polygon>
                            <polygon id="Fill-5-Copy" fill="#E7E7E7" points="243.478261 190.066225 317.681159 190.066225 317.681159 186.589404 243.478261 186.589404"></polygon>
                            <polygon id="Fill-4" fill="#E7E7E7" points="69.5652174 216.721854 165.797101 216.721854 165.797101 213.245033 69.5652174 213.245033"></polygon>
                            <polygon id="Fill-4-Copy-2" fill="#E7E7E7" points="243.478261 217.880795 339.710145 217.880795 339.710145 214.403974 243.478261 214.403974"></polygon>
                            <polygon id="Fill-6" fill="#E7E7E7" points="69.5652174 198.178808 149.565217 198.178808 149.565217 194.701987 69.5652174 194.701987"></polygon>
                            <polygon id="Fill-6-Copy" fill="#E7E7E7" points="243.478261 199.337748 323.478261 199.337748 323.478261 195.860927 243.478261 195.860927"></polygon>
                            <polygon id="Fill-7" fill="#E7E7E7" points="69.5652174 207.450331 155.362319 207.450331 155.362319 203.97351 69.5652174 203.97351"></polygon>
                            <polygon id="Fill-7-Copy" fill="#E7E7E7" points="243.478261 208.609272 329.275362 208.609272 329.275362 205.13245 243.478261 205.13245"></polygon>
                            <polygon id="Fill-8" fill="#E7E7E7" points="10.4347826 216.721854 61.4492754 216.721854 61.4492754 185.430464 10.4347826 185.430464"></polygon>
                            <polygon id="Fill-8-Copy" fill="#E7E7E7" points="184.347826 217.880795 235.362319 217.880795 235.362319 177.317881 184.347826 177.317881"></polygon>
                            <polygon id="Fill-4" fill="#E7E7E7" points="69.5652174 121.688742 165.797101 121.688742 165.797101 118.211921 69.5652174 118.211921"></polygon>
                            <polygon id="Fill-5" fill="#E7E7E7" points="69.5652174 130.960265 143.768116 130.960265 143.768116 127.483444 69.5652174 127.483444"></polygon>
                            <polygon id="Fill-5-Copy-2" fill="#E7E7E7" points="243.478261 139.072848 317.681159 139.072848 317.681159 135.596026 243.478261 135.596026"></polygon>
                            <polygon id="Fill-4" fill="#E7E7E7" points="69.5652174 158.774834 165.797101 158.774834 165.797101 155.298013 69.5652174 155.298013"></polygon>
                            <polygon id="Fill-4-Copy-4" fill="#E7E7E7" points="243.478261 166.887417 339.710145 166.887417 339.710145 163.410596 243.478261 163.410596"></polygon>
                            <polygon id="Fill-6" fill="#E7E7E7" points="69.5652174 140.231788 149.565217 140.231788 149.565217 136.754967 69.5652174 136.754967"></polygon>
                            <polygon id="Fill-6-Copy-2" fill="#E7E7E7" points="243.478261 148.344371 323.478261 148.344371 323.478261 144.86755 243.478261 144.86755"></polygon>
                            <polygon id="Fill-7" fill="#E7E7E7" points="69.5652174 149.503311 155.362319 149.503311 155.362319 146.02649 69.5652174 146.02649"></polygon>
                            <polygon id="Fill-7-Copy-2" fill="#E7E7E7" points="243.478261 157.615894 329.275362 157.615894 329.275362 154.139073 243.478261 154.139073"></polygon>
                            <polygon id="Fill-8" fill="#E7E7E7" points="10.4347826 158.774834 61.4492754 158.774834 61.4492754 118.211921 10.4347826 118.211921"></polygon>
                            <polygon id="Fill-4" fill="#E7E7E7" points="69.5652174 73.013245 165.797101 73.013245 165.797101 69.5364238 69.5652174 69.5364238"></polygon>
                            <polygon id="Fill-5" fill="#E7E7E7" points="69.5652174 82.2847682 143.768116 82.2847682 143.768116 78.807947 69.5652174 78.807947"></polygon>
                            <polygon id="Fill-4" fill="#E7E7E7" points="69.5652174 110.099338 165.797101 110.099338 165.797101 106.622517 69.5652174 106.622517"></polygon>
                            <polygon id="Fill-6" fill="#E7E7E7" points="69.5652174 91.5562914 149.565217 91.5562914 149.565217 88.0794702 69.5652174 88.0794702"></polygon>
                            <polygon id="Fill-7" fill="#E7E7E7" points="69.5652174 100.827815 155.362319 100.827815 155.362319 97.3509934 69.5652174 97.3509934"></polygon>
                            <polygon id="Fill-8" fill="#E7E7E7" points="10.4347826 110.099338 61.4492754 110.099338 61.4492754 69.5364238 10.4347826 69.5364238"></polygon>
                            <polygon id="Fill-16" fill="#4FDEE6" points="10.4347826 216.721854 114.782609 216.721854 114.782609 9.27152318 10.4347826 9.27152318"></polygon>
                            <polygon id="Fill-8-Copy-3" fill="#E7E7E7" points="114.782609 157.615894 339.710145 157.615894 339.710145 130.960265 114.782609 130.960265"></polygon>
                            <polygon id="Fill-8-Copy-4" fill="#E7E7E7" points="124.057971 62.5827815 344.347826 62.5827815 344.347826 9.27152318 124.057971 9.27152318"></polygon>
                            <polygon id="Fill-5" fill="#E7E7E7" points="267.826087 71.8543046 342.028986 71.8543046 342.028986 68.3774834 267.826087 68.3774834"></polygon>
                            <polygon id="Fill-4" fill="#E7E7E7" points="248.115942 96.192053 342.028986 96.192053 342.028986 92.7152318 248.115942 92.7152318"></polygon>
                            <polygon id="Fill-6" fill="#E7E7E7" points="264.347826 79.9668874 344.347826 79.9668874 344.347826 76.4900662 264.347826 76.4900662"></polygon>
                            <polygon id="Fill-6" fill="#E7E7E7" points="264.347826 104.304636 344.347826 104.304636 344.347826 100.827815 264.347826 100.827815"></polygon>
                            <polygon id="Fill-7" fill="#E7E7E7" points="251.594203 88.0794702 337.391304 88.0794702 337.391304 84.602649 251.594203 84.602649"></polygon>
                            <polygon id="Fill-8-Copy-2" fill="#E7E7E7" points="184.347826 166.887417 235.362319 166.887417 235.362319 126.324503 184.347826 126.324503"></polygon>
                            <polygon id="Fill-1" fill="#4FDEE6" opacity="0.5" points="0 227.152318 353.623188 227.152318 353.623188 0 0 0"></polygon>
                        </g>
                    </g>
                </g>
            </g>
            <g id="tablet" transform="translate(131.000000, 61.000000)" fill="#353540">
                <path d="M12.7546012,241.46087 L176.245399,241.46087 L176.245399,23.2173913 L12.7546012,23.2173913 L12.7546012,241.46087 Z M180.883436,0 L8.11656442,0 C3.61454093,0 0,3.61425189 0,8.12608696 L0,258.873913 C0,263.385748 3.61454093,267 8.11656442,267 L180.883436,267 C185.385459,267 189,263.385748 189,258.873913 L189,8.12608696 C189,3.61425189 185.385459,0 180.883436,0 L180.883436,0 Z" id="Page-1"></path>
            </g>
            <g id="tablet" transform="translate(144.000000, 84.000000)">
                <g id="pub">
                    <polygon id="Fill-1" fill="#FFFFFF" points="0 218 163 218 163 0 0 0"></polygon>
                    <polygon id="Fill-2" fill="#E7E7E7" points="0 15.0744681 163 15.0744681 163 0 0 0"></polygon>
                    <polygon id="Fill-16" fill="#4FDEE6" points="38.1489362 95.0851064 124.851064 95.0851064 124.851064 22.0319149 38.1489362 22.0319149"></polygon>
                    <polygon id="Fill-4" fill="#E7E7E7" points="8.09219858 185.531915 153.751773 185.531915 153.751773 153.06383 8.09219858 153.06383"></polygon>
                    <polygon id="Fill-4" fill="#E7E7E7" points="8.09219858 202.925532 153.751773 202.925532 153.751773 199.446809 8.09219858 199.446809"></polygon>
                    <polygon id="Fill-6" fill="#E7E7E7" points="8.09219858 211.042553 138.723404 211.042553 138.723404 207.56383 8.09219858 207.56383"></polygon>
                    <polygon id="Fill-7" fill="#E7E7E7" points="8.09219858 194.808511 147.971631 194.808511 147.971631 191.329787 8.09219858 191.329787"></polygon>
                    <polygon id="Fill-8" fill="#E7E7E7" points="8.09219858 146.106383 58.9574468 146.106383 58.9574468 102.042553 8.09219858 102.042553"></polygon>
                    <polygon id="Fill-4" fill="#E7E7E7" points="67.0496454 105.521277 153.751773 105.521277 153.751773 102.042553 67.0496454 102.042553"></polygon>
                    <polygon id="Fill-5" fill="#E7E7E7" points="67.0496454 113.638298 138.723404 113.638298 138.723404 110.159574 67.0496454 110.159574"></polygon>
                    <polygon id="Fill-4" fill="#E7E7E7" points="67.0496454 137.989362 153.751773 137.989362 153.751773 134.510638 67.0496454 134.510638"></polygon>
                    <polygon id="Fill-6" fill="#E7E7E7" points="67.0496454 121.755319 144.503546 121.755319 144.503546 118.276596 67.0496454 118.276596"></polygon>
                    <polygon id="Fill-6" fill="#E7E7E7" points="67.0496454 146.106383 144.503546 146.106383 144.503546 142.62766 67.0496454 142.62766"></polygon>
                    <polygon id="Fill-7" fill="#E7E7E7" points="67.0496454 129.87234 150.283688 129.87234 150.283688 126.393617 67.0496454 126.393617"></polygon>
                </g>
            </g>
            <polygon id="Fill-1" fill="#4FDEE6" opacity="0.5" points="144 302 307 302 307 84 144 84"></polygon>
            <g id="phone-banner" transform="translate(327.000000, 130.000000)" fill="#353540">
                <g id="phone-L">
                    <path d="M12.8228571,0 L89.1771429,0 C96.3795918,0 102,5.68723404 102,12.8495575 L102,185.150442 C102,192.312766 96.3795918,198 89.1771429,198 L12.8228571,198 C5.62040816,198 0,192.312766 0,185.150442 L0,12.8495575 C0,5.68723404 5.62040816,0 12.8228571,0 Z M5.82857143,178.725664 L96.1714286,178.725664 L96.1714286,17.5221239 L5.82857143,17.5221239 L5.82857143,178.725664 Z" id="Combined-Shape"></path>
                    <rect id="Rectangle" x="4.08" y="14.6017699" width="94.4228571" height="166.460177"></rect>
                </g>
            </g>
            <g id="phone-banner" transform="translate(333.000000, 148.000000)">
                <polygon id="Fill-1" fill="#FFFFFF" points="0 163 90 163 90 0 0 0"></polygon>
                <g id="banner">
                    <polygon id="Fill-2" fill="#E7E7E7" points="0 15.0283688 90 15.0283688 90 0 0 0"></polygon>
                    <polygon id="Fill-3" fill="#E7E7E7" points="3.46153846 84.3900709 86.5384615 84.3900709 86.5384615 43.929078 3.46153846 43.929078"></polygon>
                    <polygon id="Fill-4" fill="#E7E7E7" points="31.1538462 92.4822695 83.0769231 92.4822695 83.0769231 90.1702128 31.1538462 90.1702128"></polygon>
                    <polygon id="Fill-5" fill="#E7E7E7" points="31.1538462 98.2624113 71.5384615 98.2624113 71.5384615 95.9503546 31.1538462 95.9503546"></polygon>
                    <polygon id="Fill-6" fill="#E7E7E7" points="31.1538462 104.042553 75 104.042553 75 101.730496 31.1538462 101.730496"></polygon>
                    <polygon id="Fill-7" fill="#E7E7E7" points="31.1538462 109.822695 77.3076923 109.822695 77.3076923 107.510638 31.1538462 107.510638"></polygon>
                    <polygon id="Fill-8" fill="#E7E7E7" points="3.46153846 109.822695 26.5384615 109.822695 26.5384615 90.1702128 3.46153846 90.1702128"></polygon>
                    <polygon id="Fill-9" fill="#E7E7E7" points="31.1538462 117.914894 62.3076923 117.914894 62.3076923 115.602837 31.1538462 115.602837"></polygon>
                    <polygon id="Fill-10" fill="#E7E7E7" points="31.1538462 123.695035 75 123.695035 75 121.382979 31.1538462 121.382979"></polygon>
                    <polygon id="Fill-11" fill="#E7E7E7" points="31.1538462 129.475177 79.6153846 129.475177 79.6153846 127.163121 31.1538462 127.163121"></polygon>
                    <polygon id="Fill-12" fill="#E7E7E7" points="31.1538462 135.255319 73.8461538 135.255319 73.8461538 132.943262 31.1538462 132.943262"></polygon>
                    <polygon id="Fill-13" fill="#E7E7E7" points="3.46153846 135.255319 27.6923077 135.255319 27.6923077 115.602837 3.46153846 115.602837"></polygon>
                    <polygon id="Fill-9" fill="#E7E7E7" points="31.1538462 143.347518 62.3076923 143.347518 62.3076923 141.035461 31.1538462 141.035461"></polygon>
                    <polygon id="Fill-10" fill="#E7E7E7" points="31.1538462 149.12766 75 149.12766 75 146.815603 31.1538462 146.815603"></polygon>
                    <polygon id="Fill-11" fill="#E7E7E7" points="31.1538462 154.907801 79.6153846 154.907801 79.6153846 152.595745 31.1538462 152.595745"></polygon>
                    <polygon id="Fill-13" fill="#E7E7E7" points="3.46153846 158.375887 27.6923077 158.375887 27.6923077 141.035461 3.46153846 141.035461"></polygon>
                    <polygon id="Fill-16" fill="#4FDEE6" points="0 36.9929078 90 36.9929078 90 20.8085106 0 20.8085106"></polygon>
                </g>
            </g>
        </g>
    </g>
</svg>