<?xml version="1.0" encoding="UTF-8" standalone="no"?>
<svg width="100px" height="100px" viewBox="0 0 100 100" version="1.1" xmlns="http://www.w3.org/2000/svg" xmlns:xlink="http://www.w3.org/1999/xlink">
    <!-- Generator: Sketch 44.1 (41455) - http://www.bohemiancoding.com/sketch -->
    <title>VIDEO@2x</title>
    <desc>Created with Sketch.</desc>
    <defs></defs>
    <g id="Page-1" stroke="none" stroke-width="1" fill="none" fill-rule="evenodd">
        <g id="product-icons" transform="translate(-542.000000, -140.000000)">
            <g id="Page-1" transform="translate(110.000000, 139.000000)">
                <g id="Group-55" transform="translate(432.000000, 0.359000)">
                    <g id="VIDEO">
                        <path d="M99.9160396,50.139703 C99.9160396,77.480297 77.7516832,99.6446535 50.4110891,99.6446535 C23.070495,99.6446535 0.906138614,77.480297 0.906138614,50.139703 C0.906138614,22.7991089 23.070495,0.634752475 50.4110891,0.634752475 C77.7516832,0.634752475 99.9160396,22.7991089 99.9160396,50.139703" id="Fill-35" fill="#4FDEE6"></path>
                        <path d="M44.1111881,62.0208911 L44.1111881,38.2585149 L61.9329703,50.1466337 L44.1111881,62.0208911 Z M50.4111881,26.3773267 C37.2874257,26.3773267 26.6488119,37.0159406 26.6488119,50.139703 C26.6488119,63.2634653 37.2874257,73.9020792 50.4111881,73.9020792 C63.5349505,73.9020792 74.1735644,63.2634653 74.1735644,50.139703 C74.1735644,37.0159406 63.5349505,26.3773267 50.4111881,26.3773267 L50.4111881,26.3773267 Z" id="Fill-102" fill="#FFFFFF"></path>
                    </g>
                </g>
            </g>
        </g>
    </g>
</svg>