<?xml version="1.0" encoding="utf-8"?>
<!-- Generator: Adobe Illustrator 16.0.0, SVG Export Plug-In . SVG Version: 6.00 Build 0)  -->
<!DOCTYPE svg PUBLIC "-//W3C//DTD SVG 1.1//EN" "http://www.w3.org/Graphics/SVG/1.1/DTD/svg11.dtd">
<svg version="1.1" id="Layer_1" xmlns="http://www.w3.org/2000/svg" xmlns:xlink="http://www.w3.org/1999/xlink" x="0px" y="0px"
	 width="198.086px" height="198.089px" viewBox="0 0 198.086 198.089" enable-background="new 0 0 198.086 198.089"
	 xml:space="preserve">
<g>
	<path d="M197.982,172.957c0,13.896-11.371,25.268-25.268,25.268H25.267C11.37,198.223,0,186.853,0,172.957V25.504
		C0,11.608,11.37,0.238,25.267,0.238h147.449c13.896,0,25.267,11.37,25.267,25.267V172.957L197.982,172.957z"/>
</g>
<g>
	<g id="XMLID_10_">
		<g>
			<path fill="#7DC67F" d="M91.335,43.506c-1.093,0.172-2.287-0.335-3.435-0.531c0.016-0.476,0.031-0.96,0.047-1.436
				c2.755,0,5.511,0,8.641,0c0-2.701,0-4.964,0-8.103c-1.569,0.422-3.106,0.999-4.675,1.187c-0.968,0.117-2.295-0.063-2.912-0.664
				c-0.438-0.429-0.281-2.076,0.218-2.662c0.438-0.523,1.764-0.562,2.623-0.398c1.545,0.296,3.021,0.913,4.527,1.397
				c0.406-0.289,0.812-0.585,1.21-0.874c-0.859-2.287-1.624-4.621-2.631-6.846c-0.484-1.085,1.085-6.456,2.763-6.932
				c1.147-0.335,2.919,0.437,4.059,1.218c4.099,2.81,2.326,5.995-0.664,9.773c2.42-0.219,4.123,0.102,5.191-0.585
				c1.584-0.999,2.951-1.741,3.7,0.312c0.366,1.007-0.601,2.498-0.843,3.325c-2.795-0.733-4.738-1.249-7.283-1.928
				c0.164,2.724,0.273,4.605,0.429,7.251c1.976-0.492,3.567-1.077,5.199-1.226c0.952-0.086,2.053,0.375,2.903,0.906
				c0.313,0.195,0.297,1.717-0.008,1.896c-0.875,0.507-2.014,0.991-2.942,0.835c-1.42-0.242-2.748-1.023-4.535-1.741
				c0,14.628,0,28.569,0,42.526c1.272,0.39,1.959,0.71,2.692,0.804c13.129,1.772,19.352,10.28,17.149,23.222
				c-0.593,3.497-0.647,7.088-0.976,10.975c-4.863,0.961-7.096,4.123-6.417,10.242c0.866,7.727,4.098,11.092,11.521,11.021
				c-3.371,3.504-1.296,6.596-0.148,9.835c0.945,2.678,1.875,5.44,2.218,8.243c1.39,11.24-3.044,18.578-13.785,22.262
				c-5.315,1.818-10.889,2.936-16.416,3.965c-1.436,0.273-3.122-1.068-4.738-1.506c-4.723-1.288-9.765-1.857-14.136-3.872
				c-8.571-3.935-12.411-12.481-10.46-21.708c0.695-3.277,1.983-6.432,2.763-9.703c0.578-2.451,0.75-4.996,1.163-7.962
				c5.925-0.03,8.883-3.044,9.617-10.522c0.695-7.041-0.882-9.476-6.127-10.6c-0.242-3.708-0.227-7.174-0.726-10.563
				c-1.85-12.566,3.263-20.317,15.83-22.909c3.044-0.632,3.622-1.85,3.708-4.559c0.312-9.484,0.944-18.96,1.272-28.444
				C97.104,42.882,96.674,42.694,91.335,43.506z"/>
		</g>
	</g>
</g>
<g>
	<g>
		<g>
			<path fill="#C8C8C8" d="M23.502,0.238C10.576,0.238,0,10.813,0,23.74v150.981c0,12.926,10.576,23.502,23.502,23.502H174.48
				c12.926,0,23.502-10.576,23.502-23.502V23.74c0-12.926-10.576-23.502-23.502-23.502H23.502z M191.121,167.621
				c0,12.926-10.576,23.502-23.502,23.502H30.468c-12.926,0-23.502-10.576-23.502-23.502V30.467
				c0-12.926,10.576-23.502,23.502-23.502h137.151c12.926,0,23.502,10.576,23.502,23.502V167.621z"/>
		</g>
	</g>
</g>
</svg>
