<?xml version="1.0" encoding="UTF-8" standalone="no"?>
<svg width="100px" height="100px" viewBox="0 0 100 100" version="1.1" xmlns="http://www.w3.org/2000/svg" xmlns:xlink="http://www.w3.org/1999/xlink">
    <!-- Generator: Sketch 44.1 (41455) - http://www.bohemiancoding.com/sketch -->
    <title>YOUTUBE@2x</title>
    <desc>Created with Sketch.</desc>
    <defs></defs>
    <g id="Page-1" stroke="none" stroke-width="1" fill="none" fill-rule="evenodd">
        <g id="product-icons" transform="translate(-688.000000, -140.000000)">
            <g id="Page-1" transform="translate(110.000000, 139.000000)">
                <g id="YOUTUBE" transform="translate(578.000000, 1.000000)">
                    <path d="M99.4330693,50.0001 C99.4330693,77.6141 77.2687129,100.0001 49.9281188,100.0001 C22.5875248,100.0001 0.423168317,77.6141 0.423168317,50.0001 C0.423168317,22.3861 22.5875248,0.0001 49.9281188,0.0001 C77.2687129,0.0001 99.4330693,22.3861 99.4330693,50.0001" id="Fill-25" fill="#D41D29"></path>
                    <path d="M45.9623762,56.6632 L45.9623762,42.9022 L59.0386139,49.7602 L45.9623762,56.6632 Z M62.5,32.9992 L39.3376238,32.9992 C26.660396,32.9992 26.660396,36.6472 26.660396,45.6172 L26.660396,54.3832 C26.660396,62.9142 28.4564356,67.0002 39.3376238,67.0002 L62.5,67.0002 C72.3277228,67.0002 75.1752475,64.6122 75.1752475,54.3832 L75.1752475,45.6172 C75.1752475,36.1752 74.6970297,32.9992 62.5,32.9992 L62.5,32.9992 Z" id="Fill-51" fill="#FFFFFF"></path>
                    <polygon id="Fill-53" fill="#84241E" points="57.4229703 50.6119 45.9645545 42.9059 59.0358416 49.7609"></polygon>
                </g>
            </g>
        </g>
    </g>
</svg>